<svg width="457" height="438" viewBox="0 0 457 438" fill="none" xmlns="http://www.w3.org/2000/svg">
<g opacity="0.9">
<path opacity="0.5" d="M237.168 102.949C277.835 104.716 299.974 145.383 331.571 168.143C362.684 190.555 411.124 201.354 421.45 235.691C431.824 270.189 388.837 299.383 381.598 334.504C373.638 373.128 390.841 378.475 361.505 407.893C332.771 436.706 292.81 437.431 249.426 437.29C213.315 437.173 186.956 437.29 135.452 437.29C88.6576 437.29 43.3572 435.923 14.2447 407.893C-15.1482 379.593 17.647 348.016 19.7568 309.594C21.7369 273.533 -6.16664 225.362 19.7568 197.516C43.9226 171.557 102.632 176.541 135.452 159.619C170.784 141.403 196.343 101.174 237.168 102.949Z" fill="#E6E6E6"/>
<path d="M258.379 408.198C258.379 413.868 242.049 418.503 221.929 418.503C201.81 418.503 185.453 413.868 185.453 408.198C185.453 402.527 201.783 397.865 221.929 397.865C242.076 397.865 258.379 402.5 258.379 408.198Z" fill="#CACACA"/>
<path d="M185.452 390.777C185.452 396.475 147.721 401.082 101.13 401.082C54.539 401.082 16.8353 396.475 16.8353 390.777C16.8353 385.08 54.5663 380.472 101.13 380.472C147.694 380.472 185.452 385.08 185.452 390.777Z" fill="#CACACA"/>
<path d="M362.875 390.777C362.875 396.475 343.356 401.082 319.256 401.082C295.156 401.082 275.609 396.475 275.609 390.777C275.609 385.08 295.156 380.472 319.256 380.472C343.356 380.472 362.875 385.08 362.875 390.777Z" fill="#CACACA"/>
<path d="M167.678 89.938C167.64 89.9341 167.603 89.9223 167.571 89.9035C167.538 89.8848 167.509 89.8594 167.487 89.8289C167.448 89.7764 167.43 89.7117 167.435 89.6467C167.44 89.5816 167.468 89.5205 167.514 89.4745C167.568 89.4745 170.731 87.0752 175.121 89.2018C175.152 89.2129 175.181 89.2309 175.204 89.2546C175.227 89.2784 175.245 89.3071 175.256 89.3387C175.266 89.3703 175.269 89.4038 175.265 89.4368C175.26 89.4698 175.248 89.5014 175.23 89.529C175.201 89.5866 175.15 89.6303 175.089 89.6507C175.027 89.6711 174.961 89.6666 174.903 89.6381C170.813 87.6477 167.95 89.7744 167.814 89.8835L167.678 89.938Z" fill="#3797DB"/>
<path d="M237.087 344.977C146.849 297.813 116.07 248.959 106.283 215.753H164.242C163.906 220.986 162.367 226.071 159.744 230.611C158.654 232.426 157.997 234.468 157.826 236.579C157.655 238.689 157.974 240.81 158.758 242.777C159.542 244.744 160.77 246.503 162.346 247.917C163.922 249.33 165.804 250.361 167.844 250.928C169.884 251.494 172.027 251.582 174.107 251.183C176.186 250.785 178.146 249.911 179.832 248.631C181.518 247.35 182.885 245.697 183.827 243.801C184.769 241.905 185.26 239.817 185.262 237.7C185.263 235.194 184.585 232.735 183.299 230.584C180.673 226.055 179.133 220.978 178.8 215.753H237.087V269.76L238.15 269.678C243.356 269.198 248.397 267.598 252.927 264.989C254.48 264.043 256.232 263.47 258.044 263.315C259.856 263.159 261.679 263.426 263.371 264.093C265.063 264.76 266.578 265.81 267.796 267.161C269.014 268.511 269.903 270.125 270.393 271.877C270.883 273.629 270.96 275.47 270.619 277.256C270.278 279.043 269.528 280.726 268.428 282.174C267.328 283.623 265.907 284.796 264.277 285.603C262.647 286.41 260.852 286.829 259.033 286.826C256.89 286.835 254.786 286.25 252.954 285.136C248.418 282.518 243.367 280.918 238.15 280.447L237.087 280.365V344.977Z" fill="#3B77BE"/>
<path d="M239.05 282.519C243.598 283.056 247.987 284.522 251.945 286.826C254.031 288.082 256.413 288.76 258.847 288.793C261.282 288.826 263.681 288.211 265.8 287.012C267.918 285.813 269.68 284.072 270.905 281.968C272.13 279.864 272.774 277.473 272.772 275.038C272.769 272.604 272.119 270.214 270.889 268.113C269.659 266.012 267.893 264.275 265.772 263.081C263.65 261.887 261.25 261.277 258.815 261.316C256.381 261.354 254.001 262.038 251.918 263.299C247.966 265.594 243.588 267.06 239.05 267.606V215.753H307.697V214.826C307.919 208.124 306.256 201.493 302.898 195.688C301.768 193.853 301.173 191.737 301.181 189.582C301.181 186.458 302.422 183.462 304.63 181.254C306.839 179.045 309.835 177.804 312.958 177.804C316.082 177.804 319.077 179.045 321.286 181.254C323.495 183.462 324.735 186.458 324.735 189.582C324.744 191.725 324.159 193.829 323.045 195.661C319.67 201.47 317.998 208.112 318.22 214.826V215.753H369.8C360.013 248.959 329.234 297.813 238.996 344.977L239.05 282.519Z" fill="#62BDF3"/>
<path d="M238.805 345.385V282.246H239.077C243.654 282.788 248.071 284.264 252.054 286.581C254.104 287.831 256.45 288.512 258.851 288.555C261.252 288.598 263.62 288.001 265.714 286.826C267.807 285.65 269.55 283.938 270.763 281.866C271.976 279.794 272.615 277.436 272.615 275.035C272.615 272.634 271.976 270.276 270.763 268.204C269.55 266.132 267.807 264.42 265.714 263.245C263.62 262.069 261.252 261.472 258.851 261.515C256.45 261.558 254.104 262.24 252.054 263.49C248.065 265.795 243.651 267.269 239.077 267.824H238.805V215.508H307.451V214.799C307.662 208.144 306.009 201.563 302.68 195.797C301.717 194.21 301.135 192.422 300.978 190.573C300.822 188.723 301.096 186.862 301.779 185.136C302.462 183.41 303.535 181.866 304.914 180.624C306.294 179.382 307.942 178.477 309.73 177.978C311.518 177.48 313.397 177.402 315.22 177.752C317.043 178.101 318.761 178.867 320.238 179.991C321.715 181.115 322.912 182.566 323.735 184.23C324.558 185.894 324.984 187.725 324.981 189.581C324.977 191.77 324.384 193.917 323.263 195.797C319.914 201.556 318.251 208.141 318.465 214.799V215.508H370.127L370.045 215.835C360.34 248.713 329.752 297.84 239.105 345.195L238.805 345.385ZM239.296 282.791V344.568C329.207 297.486 359.768 248.741 369.527 215.999H318.056L318.002 214.826C317.79 208.075 319.47 201.398 322.854 195.552C323.912 193.803 324.485 191.804 324.516 189.76C324.547 187.716 324.034 185.701 323.03 183.921C322.026 182.141 320.567 180.659 318.802 179.628C317.037 178.597 315.029 178.054 312.985 178.054C310.942 178.054 308.934 178.597 307.169 179.628C305.404 180.659 303.945 182.141 302.941 183.921C301.937 185.701 301.424 187.716 301.455 189.76C301.486 191.804 302.059 193.803 303.117 195.552C306.513 201.393 308.195 208.073 307.969 214.826L307.915 215.999H239.296V267.333C243.708 266.763 247.962 265.317 251.809 263.081C253.934 261.792 256.364 261.092 258.849 261.051C261.334 261.011 263.785 261.633 265.95 262.852C268.116 264.072 269.918 265.845 271.173 267.991C272.427 270.136 273.088 272.577 273.088 275.062C273.088 277.548 272.427 279.988 271.173 282.134C269.918 284.28 268.116 286.053 265.95 287.273C263.785 288.492 261.334 289.113 258.849 289.073C256.364 289.033 253.934 288.333 251.809 287.044C247.968 284.796 243.711 283.349 239.296 282.791Z" fill="#96D9C9"/>
<path d="M171.521 249.477C168.4 249.47 165.409 248.227 163.202 246.019C160.995 243.812 159.751 240.821 159.744 237.7C159.749 235.549 160.333 233.44 161.434 231.593C164.403 226.488 166.061 220.728 166.26 214.827V213.791H105.71C103.211 204.797 101.927 195.509 101.894 186.174C101.894 165.018 108.573 145.253 120.732 130.504C133.245 115.292 150.557 106.922 169.477 106.922C192.704 106.922 209.88 116.6 220.185 124.725C230.49 132.849 236.106 140.891 237.087 142.336V167.308C232.947 166.671 228.962 165.265 225.337 163.164C223.251 161.909 220.87 161.23 218.435 161.197C216.001 161.165 213.602 161.78 211.483 162.979C209.364 164.178 207.602 165.918 206.377 168.022C205.152 170.126 204.508 172.518 204.511 174.952C204.514 177.387 205.163 179.777 206.393 181.878C207.623 183.979 209.389 185.715 211.511 186.91C213.632 188.104 216.033 188.713 218.467 188.675C220.901 188.637 223.282 187.952 225.365 186.692C228.983 184.599 232.957 183.194 237.087 182.548V213.791H176.756V214.827C176.955 220.728 178.612 226.488 181.581 231.593C182.656 233.382 183.237 235.423 183.266 237.51C183.295 239.597 182.77 241.654 181.744 243.472C180.719 245.289 179.23 246.803 177.43 247.858C175.629 248.913 173.581 249.471 171.494 249.477H171.521Z" fill="#C3E6FF"/>
<path d="M169.804 101.715C167.05 102.151 167.214 102.615 166.832 102.642C166.451 102.669 161.434 100.216 161.434 100.216C161.434 100.216 146.631 92.9367 145.84 92.5005L135.154 79.1147L126.948 82.9042C126.948 82.9042 138.943 97.1351 139.706 97.7622C140.47 98.3892 161.68 105.805 163.534 106.513C163.534 106.513 165.387 108.204 166.587 109.24C167.787 110.276 169.395 110.657 169.777 110.903C170.815 111.419 171.914 111.804 173.048 112.048C174.657 112.402 173.321 111.312 173.321 111.312C173.321 111.312 170.458 110.085 170.595 109.867C170.731 109.649 172.23 110.466 174.002 110.875L175.338 111.175C176.429 111.393 176.919 110.766 175.802 110.33C175.302 110.138 174.793 109.974 174.275 109.839C173.796 109.7 173.331 109.518 172.885 109.294C172.012 108.967 171.385 108.749 171.44 108.722C171.494 108.694 171.358 108.503 171.849 108.585C172.339 108.667 173.621 109.24 174.493 109.321L176.047 109.567C176.047 109.567 177.874 109.758 177.901 109.485C177.928 109.212 176.783 108.613 176.102 108.64C175.599 108.458 175.078 108.33 174.548 108.258C174.548 108.258 172.421 107.413 172.557 107.086C172.694 106.759 173.893 107.168 175.256 107.249C176.62 107.331 177.765 107.358 177.819 107.086C177.874 106.813 176.81 106.459 176.81 106.459C176.81 106.459 175.774 106.323 175.447 106.241C175.12 106.159 173.921 105.805 173.921 105.805C173.921 105.805 169.995 104.36 170.158 104.087C170.322 103.814 170.949 103.187 171.222 103.187C171.494 103.187 171.985 103.46 172.258 103.46C172.53 103.46 173.13 103.405 173.157 103.078C173.184 102.751 171.685 102.015 171.685 102.015C171.685 102.015 170.622 101.579 169.804 101.715Z" fill="#EFAC7F"/>
<path d="M142.596 87.4026C142.596 87.4026 139.925 89.8289 138.834 90.6195C137.744 91.4101 133.409 93.4275 133.409 93.4275C133.409 93.4275 128.938 86.6119 127.002 83.1769C124.63 79.033 122.995 72.8717 123.54 72.7082C125.121 72.2447 127.275 71.9448 129.265 72.8718C136.19 76.0342 142.596 87.4026 142.596 87.4026Z" fill="#3B77BE"/>
<path d="M167.214 105.259C168.414 105.45 169.613 105.232 170.159 104.142C170.268 105.423 168.305 106.077 167.214 105.259Z" fill="#FE875E"/>
<path d="M99.0039 191.381L98.704 196.616C98.5949 197.298 98.1587 198.933 98.1587 199.533C98.1587 201.796 108.219 197.597 105.984 196.616C105.766 196.507 104.702 195.825 104.62 195.062C104.539 193.862 104.266 191.463 104.266 191.463L99.0039 191.381Z" fill="#EFAC7F"/>
<path d="M105.956 196.588C105.956 196.588 103.584 197.27 102.384 197.46C101.185 197.651 99.5763 196.152 98.7039 196.561C97.8315 196.97 97.8043 200.895 97.8043 200.895C97.8043 200.895 110.481 202.013 114.053 200.841C115.47 200.405 110.781 198.196 105.956 196.588Z" fill="#666666"/>
<path d="M82.8101 191.081C82.8101 191.081 82.5101 196.289 82.5101 196.316C82.4011 196.97 81.9648 198.606 81.9648 199.206C81.9648 201.469 92.0528 197.297 89.7899 196.289C89.5717 196.207 88.1812 195.007 88.1267 194.217C88.0722 193.426 88.0722 191.163 88.0722 191.163L82.8101 191.081Z" fill="#EFAC7F"/>
<path d="M89.7619 196.261C88.5882 196.616 87.396 196.907 86.1905 197.133C84.9637 197.297 83.3825 195.852 82.5101 196.233C81.6377 196.615 81.5287 200.568 81.5287 200.568C81.5287 200.568 94.1239 201.086 97.8588 200.541C99.3309 200.323 94.5873 197.869 89.7619 196.261Z" fill="#666666"/>
<path d="M85.0727 108.722C85.0727 108.722 83.3825 117.527 84.064 124.207C84.7456 130.886 84.8274 154.604 84.8274 154.604L82.1557 192.58L88.4533 192.717C88.4533 192.717 95.9231 154.768 95.7868 155.749C95.6505 156.731 98.2949 129.032 98.2949 129.032L89.4074 107.904L85.0727 108.722Z" fill="#474747"/>
<path d="M87.4719 103.051C87.4719 103.051 79.7294 111.175 82.6192 120.035C83.7642 123.607 94.5601 157.63 94.6964 160.411C94.8327 163.192 98.3223 193.971 98.3223 193.971L105.656 193.725L107.237 159.538L105.138 113.465L100.694 105.695L87.4719 103.051Z" fill="#666666"/>
<path d="M134.417 76.7158C131.882 73.8805 126.375 69.7912 126.375 69.7912C126.375 69.7912 123.104 66.9832 121.741 66.5197C119.778 65.8381 116.397 64.0388 111.517 71.4269C108.028 76.6885 85.9997 104.033 82.3738 104.932L106.01 116.219C106.664 110.821 118.333 100.652 119.996 98.771C123.758 94.5181 136.817 79.3602 134.417 76.7158Z" fill="#3797DB"/>
<path d="M133.327 65.1565L125.966 69.4639C125.966 69.4639 125.748 75.707 128.147 77.3427C130.546 78.9785 131.719 75.4344 131.719 75.4344C131.719 75.4344 134.445 71.6449 136.517 70.4726C138.589 69.3004 133.327 65.1565 133.327 65.1565Z" fill="#EFAC7F"/>
<path d="M132.073 67.9102C132.457 69.5902 133.101 71.2 133.981 72.6816C134.72 71.8311 135.573 71.0877 136.517 70.4731C137.499 69.9278 136.872 68.7554 135.945 67.6649C135.018 66.5743 133.327 65.1565 133.327 65.1565L131.909 65.9744C131.8 66.5197 131.991 67.474 132.073 67.9102Z" fill="#D19369"/>
<path d="M137.144 54.3881C137.035 54.2518 130.982 61.7489 131.718 65.2657C132.455 68.7826 136.135 71.9995 138.67 71.1271C141.206 70.2547 146.713 61.3127 144.832 57.0053C142.951 52.6978 137.144 54.3881 137.144 54.3881Z" fill="#EFAC7F"/>
<path d="M143.768 52.0161C141.124 50.5712 136.844 50.135 133.627 51.8253C129.674 53.8972 128.774 59.0771 130.001 62.2395C131.228 65.4019 129.837 67.2012 129.837 67.2012L131.937 65.9744C131.937 65.9744 133.136 64.0661 133.3 62.5394C133.463 61.0127 135.699 61.3126 136.762 60.6037C137.825 59.8949 138.67 58.3682 140.034 57.4686C140.034 57.4686 143.441 57.0596 145.104 57.9866C147.967 59.5678 147.558 54.1153 143.768 52.0161Z" fill="#5E2E0D"/>
<path d="M155.464 112.756C152.574 112.429 152.574 112.647 152.193 112.593C151.811 112.538 147.285 108.667 147.285 108.667C147.285 108.667 133.954 97.4078 133.272 96.7535L125.966 80.6143L116.315 82.0592C116.315 82.0592 125.312 101.034 125.939 101.852C126.566 102.669 146.304 114.201 148.021 115.428C148.021 115.428 149.521 117.582 150.502 118.945C151.484 120.308 153.038 121.126 153.365 121.453C154.285 122.257 155.302 122.944 156.391 123.498C157.945 124.288 156.827 122.844 156.827 122.844C156.827 122.844 154.21 120.853 154.401 120.69C154.592 120.526 155.927 121.726 157.618 122.625L158.899 123.28C159.935 123.825 160.562 123.362 159.553 122.625C159.099 122.276 158.615 121.966 158.108 121.699C157.657 121.425 157.228 121.115 156.827 120.772C156.036 120.199 155.491 119.845 155.546 119.817C155.6 119.79 155.464 119.545 155.955 119.79C156.445 120.036 157.59 120.908 158.463 121.262C159.335 121.617 159.962 121.944 159.962 121.944C159.962 121.944 161.434 122.135 161.489 122.026C161.543 121.917 160.916 121.208 160.208 121.044C159.759 120.717 159.274 120.443 158.763 120.226C158.763 120.226 156.8 118.809 156.991 118.536C157.182 118.263 158.217 119.218 159.635 119.736C161.053 120.254 162.034 120.036 162.171 119.763C162.307 119.49 161.407 119.136 161.407 119.136C160.832 119.006 160.267 118.833 159.717 118.618C159.362 118.427 155.028 115.156 155.219 114.91C155.409 114.665 156.091 114.665 156.364 114.747L157.427 115.101C157.699 115.183 158.19 114.856 158.299 114.529C158.408 114.201 157.372 113.629 157.372 113.629C157.372 113.629 156.282 112.866 155.464 112.756Z" fill="#EFAC7F"/>
<path d="M117.842 89.9107C117.842 89.9107 120.623 89.011 122.395 88.2204C123.594 87.6752 128.774 85.0853 128.774 85.0853C128.774 85.0853 126.539 75.6525 125.039 72.272C119.478 59.8131 113.153 68.4007 112.281 70.3909C110.372 74.8892 117.842 89.9107 117.842 89.9107Z" fill="#62BDF3"/>
<path d="M320.21 213.791C320.163 207.778 321.735 201.864 324.763 196.67C326.018 194.584 326.697 192.202 326.73 189.768C326.762 187.333 326.148 184.934 324.949 182.815C323.749 180.697 322.009 178.935 319.905 177.71C317.801 176.485 315.409 175.841 312.975 175.843C310.54 175.846 308.15 176.496 306.049 177.726C303.948 178.956 302.212 180.722 301.018 182.843C299.823 184.965 299.214 187.365 299.252 189.8C299.291 192.234 299.975 194.614 301.235 196.697C304.241 201.891 305.812 207.79 305.788 213.791H239.05V180.312L237.96 180.449C233.162 181.022 228.532 182.572 224.356 185.002C222.802 185.938 221.052 186.503 219.243 186.652C217.435 186.801 215.616 186.53 213.93 185.86C212.243 185.19 210.734 184.14 209.521 182.791C208.307 181.442 207.422 179.83 206.933 178.083C206.445 176.335 206.368 174.498 206.706 172.715C207.045 170.932 207.792 169.252 208.887 167.805C209.982 166.359 211.397 165.185 213.021 164.375C214.645 163.565 216.434 163.141 218.249 163.137C220.395 163.138 222.499 163.733 224.329 164.855C228.517 167.28 233.154 168.829 237.96 169.408L239.05 169.544V142.336C240.032 140.891 245.757 132.74 255.953 124.725C266.149 116.71 283.46 106.922 306.661 106.922C325.581 106.922 342.919 115.292 355.433 130.504C367.565 145.253 374.271 165.018 374.271 186.174C374.228 195.51 372.935 204.798 370.427 213.791H320.21Z" fill="#666666"/>
<path d="M370.836 257.383H350.853C350.378 257.376 349.924 257.184 349.588 256.848C349.252 256.512 349.061 256.058 349.053 255.583C349.061 255.108 349.252 254.655 349.588 254.319C349.924 253.983 350.378 253.791 350.853 253.784H370.836C371.313 253.784 371.771 253.974 372.108 254.311C372.446 254.649 372.635 255.106 372.635 255.583C372.635 256.061 372.446 256.518 372.108 256.856C371.771 257.193 371.313 257.383 370.836 257.383Z" fill="#7772D6"/>
<path d="M372.799 260.218H348.89C348.415 260.211 347.961 260.019 347.625 259.683C347.289 259.348 347.098 258.894 347.091 258.419C347.098 257.944 347.289 257.49 347.625 257.154C347.961 256.819 348.415 256.627 348.89 256.62H372.799C373.276 256.62 373.734 256.809 374.071 257.147C374.409 257.484 374.598 257.942 374.598 258.419C374.598 258.896 374.409 259.354 374.071 259.691C373.734 260.029 373.276 260.218 372.799 260.218Z" fill="#666666"/>
<path d="M302.68 379.545C302.68 379.545 300.826 381.372 300.799 382.026C300.772 382.68 300.636 389.85 301.372 390.532C302.108 391.213 304.343 391.677 303.634 392.413C302.926 393.149 298.973 392.876 296.219 392.713C295.429 392.686 294.42 386.224 294.12 385.27C293.656 383.88 291.993 380.881 292.402 379.927C292.621 379.463 294.12 378.4 295.51 377.501C296.901 376.601 298.318 374.447 298.318 374.447L302.68 379.545Z" fill="#EFAC7F"/>
<path d="M327.298 384.016L325.662 388.733C325.526 389.496 325.063 391.35 325.063 392.031C325.063 394.567 336.404 389.85 333.868 388.733C333.623 388.624 332.914 387.806 332.832 386.933C332.723 385.597 333.787 383.907 333.787 383.907L327.298 384.016Z" fill="#EFAC7F"/>
<path d="M342.974 294.432L347.091 305.065C347.091 305.065 349.762 330.5 348.208 345.713C347.554 352.065 333.405 386.143 333.405 386.143L326.398 385.134L335.804 344.786L332.342 329.383L327.434 298.876L342.974 294.432Z" fill="#474747"/>
<path d="M323.618 294.978L320.074 306.837L314.703 342.632L296.574 376.11C296.574 376.11 299.3 380.308 302.217 380.963L327.98 347.13L341.938 304.765L341.447 295.359L323.618 294.978Z" fill="#666666"/>
<path d="M377.761 275.24C375.661 276.194 375.88 276.603 375.607 276.712C375.334 276.821 370.836 275.431 370.836 275.431L356.987 271.123L345.973 260.464L340.166 265.643C340.166 265.643 352.407 276.821 353.143 277.284C353.879 277.748 372.09 280.692 373.699 281.019C373.699 281.019 375.498 282.273 376.643 283.01C377.788 283.746 379.151 283.827 379.505 283.964C380.412 284.263 381.359 284.419 382.313 284.427C383.649 284.427 382.395 283.664 382.395 283.664C382.395 283.664 379.887 283.064 379.942 282.846C379.996 282.628 381.359 283.064 382.859 283.119H383.949C384.876 283.119 385.149 282.437 384.167 282.246C383.738 282.146 383.299 282.092 382.859 282.083C382.452 282.027 382.05 281.935 381.659 281.81C380.923 281.674 380.378 281.592 380.405 281.537C380.432 281.483 380.296 281.347 380.705 281.347C381.114 281.347 382.232 281.619 382.94 281.537C383.649 281.456 384.222 281.483 384.222 281.483C384.222 281.483 385.612 281.237 385.612 281.156C385.667 280.61 384.631 280.42 384.085 280.556C383.653 280.489 383.214 280.471 382.777 280.501C382.777 280.501 380.95 280.12 380.978 279.793C381.005 279.465 385.585 279.411 385.585 278.866C385.585 278.32 384.222 278.375 384.222 278.375L383.104 278.429C382.777 278.429 381.823 278.293 381.823 278.293C381.823 278.293 378.442 277.693 378.497 277.393C378.551 277.094 378.96 276.385 379.178 276.33C379.396 276.276 379.833 276.467 380.051 276.412C380.187 276.36 380.302 276.266 380.381 276.143C380.459 276.02 380.497 275.876 380.487 275.731C380.46 275.376 379.315 275.131 379.315 275.131C379.315 275.131 378.388 274.967 377.761 275.24Z" fill="#F8A492"/>
<path d="M349.926 263.163L344.419 270.66C344.419 270.66 339.539 264.826 337.331 261.881C334.686 258.31 331.769 253.375 332.178 253.103C333.405 252.367 334.932 251.576 336.704 252.04C342.865 253.621 349.926 263.163 349.926 263.163Z" fill="#3B77BE"/>
<path d="M295.592 377.446C295.592 377.446 299.463 389.333 301.126 389.905C301.563 390.069 304.043 390.696 304.452 391.65V391.732C304.476 391.873 304.469 392.019 304.43 392.158C304.392 392.296 304.323 392.425 304.23 392.534C304.136 392.643 304.02 392.731 303.889 392.79C303.757 392.849 303.615 392.879 303.471 392.877H295.565C295.565 392.877 294.447 387.533 294.011 385.189C294.011 385.189 291.666 379.464 291.939 378.946C292.212 378.428 295.592 377.446 295.592 377.446Z" fill="#474747"/>
<path d="M324.408 392.849L325.662 388.705C325.662 388.705 328.443 389.878 329.806 389.687C331.169 389.496 333.841 388.705 333.841 388.705C339.294 390.505 343.765 391.404 342.947 392.849H324.408Z" fill="#474747"/>
<path d="M376.098 278.866C376.591 278.864 377.075 278.729 377.497 278.475C377.92 278.22 378.265 277.856 378.497 277.421C378.279 278.784 376.97 279.356 376.098 278.866Z" fill="#FE875E"/>
<path d="M325.008 251.794C325.008 251.794 318.438 252.503 316.23 253.266C314.021 254.03 311.895 259.946 311.895 259.946C311.895 259.946 321.873 288.816 321.491 293.969C321.11 299.122 319.992 306.782 319.992 306.782C319.992 306.782 339.648 308.009 347.091 305.065C347.091 305.065 344.746 293.369 344.746 290.316C344.746 287.262 343.41 256.538 342.483 254.929C341.556 253.321 339.648 252.421 336.049 251.631C332.451 250.84 325.008 251.794 325.008 251.794Z" fill="#3797DB"/>
<path d="M326.317 243.206L325.008 251.794C325.008 251.794 328.961 256.347 331.824 255.474C334.223 254.738 333.596 251.358 333.596 251.358C333.596 251.358 332.287 246.505 332.669 244.052C333.051 241.598 326.317 243.206 326.317 243.206Z" fill="#EFAC7F"/>
<path d="M332.669 244.052C333.078 241.625 326.317 243.207 326.317 243.207L326.208 243.915C326.389 244.351 326.637 244.756 326.944 245.115C328.508 246.705 330.607 247.657 332.833 247.787C332.642 246.451 332.506 245.061 332.669 244.052Z" fill="#D19369"/>
<path d="M325.226 231.075C325.035 230.993 323.7 240.835 326.235 243.561C328.77 246.287 333.705 247.159 335.477 245.033C337.249 242.907 337.331 232.056 333.405 229.275C329.479 226.495 325.226 231.075 325.226 231.075Z" fill="#EFAC7F"/>
<path d="M331.905 224.014C329.698 224.473 327.688 225.607 326.153 227.258C324.763 227.422 322.882 228.185 320.946 231.375C318.547 235.301 320.319 239.663 323.1 241.789C325.881 243.916 325.853 246.396 325.853 246.396L326.289 245.115C326.616 244.151 326.727 243.128 326.617 242.116C326.568 241.497 326.421 240.89 326.18 240.317C325.499 238.899 327.625 237.945 328.198 236.746C328.77 235.546 328.689 233.747 329.397 232.247L330.242 231.075C330.242 231.075 332.233 229.548 334.168 229.985C336.104 230.421 335.804 223.223 331.905 224.014Z" fill="#282828"/>
<path d="M328.089 238.518C328.089 239.717 327.544 240.699 326.835 240.699C326.126 240.699 325.553 239.745 325.553 238.545C325.553 237.345 326.071 236.364 326.78 236.336C327.489 236.309 328.062 237.291 328.089 238.518Z" fill="#EFAC7F"/>
<path d="M336.976 293.505H376.67V259.07H336.976V293.505Z" fill="#B2DDFB"/>
<path d="M361.676 293.505H396.108V259.07H361.676V293.505Z" fill="#C3E6FF"/>
<path d="M361.022 292.769C359.004 292.197 335.777 286.254 334.904 285.681C334.032 285.109 319.692 271.696 319.692 271.696L327.898 267.361L340.738 280.011L358.05 286.608C358.05 286.608 363.093 288.68 363.53 288.571C363.966 288.462 364.211 288.189 367.074 287.535C367.892 287.344 369.064 287.698 369.064 287.698C369.064 287.698 370.509 288.135 370.509 288.489C370.496 288.656 370.422 288.812 370.301 288.927C370.18 289.043 370.022 289.11 369.855 289.116C369.555 289.143 369.009 288.898 368.71 288.925C368.41 288.953 367.81 289.58 367.701 289.879C367.592 290.179 371.708 293.042 371.899 293.424C372.09 293.805 376.861 293.205 376.67 293.505C376.479 293.805 376.098 293.86 376.098 293.942C376.016 295.277 369.091 296.259 368.628 296.123C368.164 295.986 361.022 292.769 361.022 292.769Z" fill="#EFAC7F"/>
<path d="M324.108 277.857L333.514 271.696C333.514 271.696 322.636 255.175 318.901 253.484C316.339 252.312 313.149 254.084 311.895 258.419C310.641 262.754 324.108 277.857 324.108 277.857Z" fill="#3B77BE"/>
<path d="M304.289 29.1975C302.871 31.6239 300.336 31.5148 297.61 32.1964C295.783 32.6598 294.638 35.6587 294.829 37.9487C295.265 43.7011 290.739 42.7196 287.114 45.1187C278.39 50.8438 284.006 65.7563 293.547 66.7104C295.456 66.9013 297.61 66.6014 299.3 65.6472C300.99 64.693 301.617 63.9024 303.144 63.3572C306.361 62.2394 309.932 61.8305 312.495 59.3769C316.175 55.8328 313.122 54.1153 314.076 51.5526C315.03 48.99 319.092 50.2713 319.883 44.9551C320.728 39.2028 319.801 34.2138 317.675 31.3785C314.158 26.6349 307.996 26.3077 305.734 27.7526C305.142 28.1105 304.647 28.6063 304.289 29.1975Z" fill="#474747"/>
<path d="M344.283 39.9934C343.928 39.2846 340.929 41.4111 340.248 41.0022C339.566 40.5932 342.947 37.2127 342.592 36.6129C341.965 35.5224 338.694 40.1025 338.367 39.6118C338.04 39.1211 341.202 34.2411 340.084 33.9685C338.966 33.6959 337.331 39.3937 336.758 39.012C336.186 38.6303 338.721 33.8594 337.631 32.9053C337.058 32.3873 334.305 41.6292 333.323 42.0109C332.342 42.3925 331.197 38.3577 330.27 38.5213C329.343 38.6849 333.323 45.9366 333.132 46.5091C332.941 47.0816 329.261 58.968 327.107 62.5394L323.318 60.6855C322.827 63.439 322.773 66.3288 322.118 69.0278C326.344 70.8816 330.079 72.2175 331.306 71.7813C335.041 70.3909 336.867 52.3433 337.467 48.9627C338.067 45.5822 339.648 44.9279 340.575 43.1559C341.502 41.3838 344.61 40.7295 344.283 39.9934Z" fill="#EFAC7F"/>
<path d="M313.149 55.2329L306.933 61.5032C306.933 61.5032 315.139 65.9742 322.118 69.0276C322.773 66.3287 322.827 63.4389 323.318 60.6854C317.538 57.7683 313.149 55.2329 313.149 55.2329Z" fill="#7772D6"/>
<path d="M351.998 124.997C353.845 127.183 355.496 129.528 356.932 132.004C357.041 132.194 357.069 133.339 357.178 133.558C361.431 136.338 365.929 135.575 369.637 134.43C367.21 133.367 363.802 132.14 363.503 131.622C361.453 128.802 359.699 125.778 358.268 122.598C356.36 124.479 354.588 124.261 351.998 124.997Z" fill="#EFAC7F"/>
<path d="M356.987 132.14C356.605 133.83 356.769 137.293 357.096 137.374C357.423 137.456 371.763 139.555 373.589 137.729C374.707 136.638 372.635 135.793 369.636 134.43C365.929 135.575 357.123 133.285 356.987 132.14Z" fill="#3797DB"/>
<path d="M353.225 137.865C355.065 140.057 356.716 142.4 358.159 144.872C358.241 145.062 358.295 146.207 358.404 146.426C362.657 149.234 367.156 148.443 370.836 147.298C368.41 146.235 365.029 145.008 364.702 144.517C364.375 144.026 361.894 140.755 359.495 135.466C357.587 137.374 355.787 137.156 353.225 137.865Z" fill="#EFAC7F"/>
<path d="M358.186 145.035C357.832 146.725 357.968 150.16 358.295 150.242C358.623 150.324 372.99 152.45 374.816 150.596C375.907 149.506 373.835 148.661 370.836 147.298C367.156 148.443 358.323 146.18 358.186 145.035Z" fill="#3797DB"/>
<path d="M360.204 124.834L352.761 127.424L312.822 94.2726C312.822 94.2726 322.555 94.1363 340.03 95.9356C345.264 96.4536 360.204 124.834 360.204 124.834Z" fill="#B2DDFB"/>
<path d="M297.8 91.519C297.8 91.519 296.737 94.3271 296.601 95.8537C296.165 100.788 298.727 107.059 301.481 108.04C304.234 109.021 321.655 113.847 332.096 112.375L354.724 142.554L362.276 139.255L344.61 108.204C344.61 108.204 341.202 102.86 338.394 101.606C335.586 100.352 312.822 94.2725 312.822 94.2725L309.278 89.1472L297.8 91.519Z" fill="#C3E6FF"/>
<path d="M316.23 60.2221C315.454 58.794 314.598 57.4105 313.667 56.0782C312.386 53.7609 309.032 52.5886 309.032 52.5886L306.606 52.6704C306.581 52.8352 306.505 52.9878 306.388 53.1066C305.897 53.461 303.117 52.9976 301.317 54.2244C295.32 59.3769 296.982 84.431 297.446 92.337L312.031 92.855C312.031 92.855 313.449 75.4889 317.157 71.127C319.747 68.0736 318.084 63.6571 316.23 60.2221Z" fill="#CACACA"/>
<path d="M307.969 44.1099C307.969 44.1099 306.96 51.3344 306.279 53.0792C305.597 54.824 310.123 58.559 313.94 59.704C317.756 60.849 312.767 55.8327 312.931 53.9789C313.094 52.1251 313.776 43.2375 313.776 43.2375L307.969 44.1099Z" fill="#EFAC7F"/>
<path d="M313.586 45.7732L313.777 43.2375L307.969 44.11C307.969 44.11 307.833 44.9552 307.669 46.1549C310.014 47.5181 312.141 47.1092 313.586 45.7732Z" fill="#D19369"/>
<path d="M309.796 30.9694C308.276 31.3786 306.957 32.3286 306.088 33.6411C304.698 35.7948 303.716 42.1469 308.378 45.1185C313.04 48.0901 316.611 43.8917 316.693 39.8024C316.775 35.713 315.875 30.2333 309.796 30.9694Z" fill="#EFAC7F"/>
<path d="M317.757 38.5213C317.348 39.5028 316.557 40.1026 315.984 39.8845C315.412 39.6664 315.275 38.6576 315.657 37.6761C316.039 36.6945 316.857 36.0674 317.429 36.3128C318.002 36.5582 318.138 37.5125 317.757 38.5213Z" fill="#EFAC7F"/>
<path d="M306.034 39.3122C306.361 40.3755 306.061 41.4388 305.325 41.6569C304.589 41.8751 303.771 41.2207 303.416 40.1574C303.062 39.0941 303.389 38.0307 304.125 37.8126C304.861 37.5945 305.679 38.2488 306.034 39.3122Z" fill="#EFAC7F"/>
<path d="M325.253 62.9484C325.253 62.9484 326.835 63.003 327.271 62.9484C329.834 62.7031 328.771 66.4929 328.771 66.4929C328.771 66.4929 327.516 65.2659 327.026 65.2659C326.623 65.2789 326.222 65.3245 325.826 65.4023L325.253 62.9484Z" fill="#666666"/>
<path d="M333.95 88.2475C333.95 88.2475 334.986 89.8834 336.186 89.1473C337.386 88.4111 339.403 86.9934 339.785 88.0567C340.167 89.12 340.085 90.0198 339.676 90.2379C339.267 90.456 336.213 92.1192 334.55 92.2282C332.887 92.3373 331.524 90.7832 331.524 90.7832L333.95 88.2475Z" fill="#3B77BE"/>
<path d="M336.404 91.9553C336.349 90.674 336.104 89.2291 335.395 88.0023C333.596 84.8671 325.935 76.4158 324.79 75.7615C323.645 75.1072 324.49 72.5718 324.49 72.5718L319.937 70.1182L317.566 68.8369C317.566 68.8369 312.222 77.0156 311.813 77.7789C311.404 78.5423 312.14 81.0777 311.595 82.6316C311.05 84.1856 311.595 92.6369 310.832 93.5638C310.068 94.4907 309.687 94.2454 309.496 94.5998C309.426 94.711 309.391 94.8407 309.396 94.972C309.401 95.1033 309.445 95.2301 309.523 95.3359C310.15 96.0992 313.285 95.4449 313.285 95.4449C313.285 95.4449 314.594 93.5911 314.403 92.5006C314.212 91.4101 314.839 85.167 315.276 85.167C315.712 85.167 317.456 87.9478 318.165 88.493L318.383 88.5748C318.901 88.5748 322.255 89.3382 322.991 90.0742C323.182 90.2651 323.263 90.7831 323.263 91.4646C323.263 92.1462 323.236 92.3915 323.209 92.9095C323.127 93.8364 323.018 94.8179 322.909 95.4449H325.308C325.962 94.2454 327.353 93.4548 328.934 93.4548C329.624 93.4379 330.309 93.5907 330.927 93.8996C331.544 94.2086 332.077 94.6642 332.478 95.2268C333.814 95.1723 334.332 95.8266 335.477 95.7175C335.531 95.3086 336.431 92.4733 336.404 91.9553Z" fill="#3797DB"/>
<path d="M325.717 63.3299C325.468 63.0868 325.166 62.9058 324.835 62.8015C324.503 62.6973 324.151 62.6729 323.809 62.7301C323.268 62.8268 322.716 62.8359 322.173 62.7574C320.51 62.6211 318.792 62.7574 317.702 63.8206C316.611 64.8839 316.502 68.7278 317.702 70.5271C318.901 72.3265 322.336 72.7899 322.636 73.6078C322.936 74.4257 325.908 74.8073 326.344 73.8259C326.463 73.8939 326.594 73.9363 326.731 73.9504C326.867 73.9645 327.004 73.9499 327.135 73.9077C328.225 73.5805 328.634 72.49 328.252 71.3178C327.871 70.1455 326.18 67.6919 326.48 65.5109C326.549 65.1124 326.516 64.7029 326.382 64.3212C326.249 63.9394 326.02 63.5982 325.717 63.3299Z" fill="#3B77BE"/>
<path d="M325.035 70.6909C324.94 70.7879 324.884 70.9174 324.879 71.0536C324.874 71.1899 324.92 71.3231 325.008 71.427C325.416 71.9267 325.883 72.3752 326.399 72.763C327.08 73.1174 327.707 71.5361 327.707 70.7999C327.707 70.0638 326.181 69.5185 325.035 70.6909Z" fill="#666666"/>
<path d="M324.354 82.1954C324.351 82.113 324.331 82.0322 324.296 81.9574C324.262 81.8827 324.212 81.8155 324.152 81.7598C324.091 81.7041 324.02 81.6609 323.942 81.6327C323.865 81.6046 323.782 81.5919 323.7 81.5956H323.673C323.259 81.6284 322.857 81.746 322.49 81.9409C322.124 82.1359 321.802 82.404 321.544 82.7287C321.285 83.0535 321.097 83.4278 320.989 83.8286C320.882 84.2293 320.858 84.6479 320.919 85.0582C320.946 85.1471 320.946 85.242 320.919 85.3309C320.864 85.6308 320.346 86.6668 319.774 87.7302L322.937 88.5209L324.491 85.9307L324.354 82.1954Z" fill="#3B77BE"/>
<path d="M318.329 90.4017C318.329 90.4017 317.129 94.0006 316.775 95.3911C317.756 95.9364 318.329 94.8458 320.537 95.4457C320.592 95.0094 321.355 92.3375 321.355 91.6831C321.355 91.0288 322.337 89.8836 323.1 88.5477C323.123 88.5305 323.14 88.5066 323.149 88.4793C323.157 88.4519 323.157 88.4226 323.148 88.3955C323.139 88.3684 323.122 88.3448 323.098 88.328C323.075 88.3113 323.047 88.3023 323.019 88.3023C322.037 88.0296 320.837 87.5389 319.883 87.2662C319.821 87.2512 319.756 87.2564 319.697 87.2809C319.638 87.3054 319.589 87.348 319.556 87.4026C319.09 88.3779 318.68 89.3793 318.329 90.4017Z" fill="#3B77BE"/>
<path d="M315.875 95.036C316.071 94.684 316.361 94.3932 316.713 94.1959C317.064 93.9986 317.463 93.9025 317.866 93.9182C318.874 93.9182 320.538 95.445 320.538 95.445C320.538 95.445 320.047 95.9358 318.711 95.9358C317.375 95.9358 315.412 96.0176 315.875 95.036Z" fill="#3B77BE"/>
<path d="M321.955 94.8178C322.141 94.4637 322.425 94.1704 322.773 93.9723C323.121 93.7743 323.518 93.6798 323.918 93.6999C324.388 93.754 324.837 93.9225 325.227 94.1907C325.367 94.2926 325.472 94.4351 325.529 94.5989C325.585 94.7628 325.59 94.94 325.542 95.1067C325.495 95.2733 325.397 95.4213 325.263 95.5306C325.128 95.6399 324.963 95.7051 324.79 95.7175H324.763C323.427 95.7175 321.491 95.7993 321.955 94.8178Z" fill="#3B77BE"/>
<path d="M331.606 94.8178C331.905 94.2998 332.751 93.7 333.978 93.7C334.526 93.7444 335.057 93.9122 335.532 94.1907C336.377 94.5997 336.022 95.6903 335.041 95.7176H334.986C333.378 95.7176 331.06 95.7993 331.606 94.8178Z" fill="#3B77BE"/>
<path d="M321.246 64.1206C320.755 63.6299 321.055 63.0574 321.328 62.7302C319.937 62.703 318.601 62.9211 317.702 63.8207C316.802 64.7204 316.502 68.7279 317.702 70.5272C318.901 72.3265 321.682 72.681 322.473 73.3625C323.291 71.9721 322.037 70.7999 321.737 70.1456C321.437 69.4913 323.209 67.8283 323.4 66.4924C323.59 65.1566 321.982 64.8567 321.246 64.1206Z" fill="#666666"/>
<path d="M318.929 63.0572C318.129 63.2821 317.279 63.2438 316.503 62.9481C315.139 62.4846 313.803 64.8839 313.803 64.8839C313.803 64.8839 315.057 67.5831 316.066 68.2375C317.075 68.8918 318.929 63.0572 318.929 63.0572Z" fill="#3B77BE"/>
<path d="M336.049 86.0395C336.049 85.4397 334.196 83.7222 333.323 83.9948C332.451 84.2674 328.988 86.4484 328.988 86.4484L313.64 82.8498C313.64 82.8498 309.769 73.9896 309.387 66.4106C306.17 66.8468 303.989 67.6374 301.208 69.1914C302.544 76.4432 305.815 88.2205 309.414 90.4287C310.941 91.3556 329.07 89.311 329.07 89.311C329.07 89.311 332.832 89.8289 333.787 89.5836C337.631 88.5204 336.049 87.2663 336.049 86.0395Z" fill="#EFAC7F"/>
<path d="M309.469 58.2866C309.005 55.9966 308.433 53.7065 305.979 52.9704C305.205 52.7653 304.394 52.7473 303.611 52.9179C302.829 53.0886 302.099 53.443 301.481 53.9519C300.009 55.1514 299.627 57.087 299.627 58.8864C299.603 63.0618 299.949 67.2311 300.663 71.3452C303.444 69.7913 307.506 69.9821 310.723 69.5459C311.023 65.8655 310.096 61.2854 309.469 58.2866Z" fill="#828282"/>
<path d="M184.989 45.3915C183.353 54.0064 178.173 72.1631 169.722 71.8904C169.286 60.0313 168.713 49.8625 167.896 46.6456C167.719 45.9872 167.5 45.3407 167.241 44.7099C172.503 45.1734 175.665 37.1583 176.892 31.4877C175.802 35.0864 173.348 40.8387 170.158 42.7471C169.619 43.0979 169.006 43.3177 168.367 43.3887C167.728 43.4597 167.081 43.38 166.478 43.156C163.425 37.4582 157.645 33.6415 154.864 30.2337C152.656 27.5347 154.074 16.6843 154.619 13.2493C153.828 17.2296 153.01 23.091 153.365 27.153C153.774 31.7604 156.146 32.0602 161.598 38.2215C165.96 43.1015 167.459 45.7459 167.623 64.4206C167.228 64.4991 166.826 64.5447 166.423 64.5569C161.952 64.6387 157.863 60.304 155.6 56.5145C157.372 59.9768 160.562 63.8753 164.297 65.0476C164.985 65.2715 165.7 65.4 166.423 65.4293C166.825 65.4292 167.225 65.4019 167.623 65.3475C167.732 66.9832 168.223 99.0709 167.787 119.79C169.095 119.818 168.85 119.191 170.158 119.3C170.104 113.684 170.376 92.6916 169.777 74.2623C179.646 73.8806 183.79 55.6149 184.989 45.3915Z" fill="#666666"/>
<path d="M148.812 17.0664C150.802 18.675 153.802 18.2661 153.802 18.2661L146.522 12.4314C146.522 12.4314 146.795 15.4578 148.812 17.0664Z" fill="#96A65F"/>
<path d="M146.522 12.4314L153.802 18.2661C153.802 18.2661 153.556 15.2669 151.539 13.6583C149.521 12.0497 146.522 12.4314 146.522 12.4314Z" fill="#9ED16F"/>
<path d="M182.645 70.4998C185.207 70.418 187.225 68.1553 187.225 68.1553L177.901 68.5097C177.901 68.5097 180.055 70.6089 182.645 70.4998Z" fill="#96A65F"/>
<path d="M177.901 68.5099L187.225 68.1555C187.225 68.1555 185.044 66.0563 182.481 66.1381C179.918 66.2199 177.901 68.5099 177.901 68.5099Z" fill="#9ED16F"/>
<path d="M185.344 61.1221C187.116 59.9769 187.58 57.5776 187.58 57.5776L181.2 61.6946C181.2 61.6946 183.572 62.2672 185.344 61.1221Z" fill="#96A65F"/>
<path d="M181.2 61.6945L187.58 57.5775C187.58 57.5775 185.18 57.0049 183.408 58.15C181.636 59.2952 181.2 61.6945 181.2 61.6945Z" fill="#9ED16F"/>
<path d="M176.238 60.7677C176.947 62.7308 179.21 63.7123 179.21 63.7123L176.565 56.5962C176.565 56.5962 175.502 58.8046 176.238 60.7677Z" fill="#96A65F"/>
<path d="M176.565 56.5962L179.21 63.7123C179.21 63.7123 180.273 61.5039 179.564 59.5408C178.855 57.5777 176.565 56.5962 176.565 56.5962Z" fill="#9ED16F"/>
<path d="M155.546 22.464C153.965 23.5818 153.637 25.7903 153.637 25.7903L159.336 21.8369C159.336 21.8369 157.127 21.3734 155.546 22.464Z" fill="#96A65F"/>
<path d="M159.336 21.8367L153.637 25.7901C153.637 25.7901 155.846 26.2536 157.4 25.1357C158.954 24.0179 159.336 21.8367 159.336 21.8367Z" fill="#9ED16F"/>
<path d="M177.329 38.3847C175.42 38.2484 173.757 39.748 173.757 39.748L180.682 40.2933C180.682 40.2933 179.264 38.5483 177.329 38.3847Z" fill="#96A65F"/>
<path d="M180.682 40.2933L173.757 39.748C173.757 39.748 175.175 41.493 177.083 41.6293C178.992 41.7656 180.682 40.2933 180.682 40.2933Z" fill="#9ED16F"/>
<path d="M156.855 60.2222C154.946 60.0586 153.283 61.5582 153.283 61.5582L160.208 62.1035C160.208 62.1035 158.791 60.3585 156.855 60.2222Z" fill="#96A65F"/>
<path d="M160.208 62.1032L153.283 61.5579C153.283 61.5579 154.701 63.3028 156.609 63.4664C158.518 63.63 160.208 62.1032 160.208 62.1032Z" fill="#9ED16F"/>
<path d="M160.453 58.2867C159.772 56.4872 157.672 55.6147 157.672 55.6147L160.208 62.1038C160.208 62.1038 161.162 60.0589 160.453 58.2867Z" fill="#96A65F"/>
<path d="M160.208 62.1038L157.672 55.6147C157.672 55.6147 156.745 57.6596 157.427 59.4591C158.108 61.2586 160.208 62.1038 160.208 62.1038Z" fill="#9ED16F"/>
<path d="M174.139 35.9315C173.73 34.7864 172.394 34.2139 172.394 34.2139L173.948 38.3854C173.948 38.3854 174.575 37.0767 174.139 35.9315Z" fill="#96A65F"/>
<path d="M173.948 38.3854L172.394 34.2139C172.394 34.2139 171.767 35.5226 172.203 36.6677C172.639 37.8128 173.948 38.3854 173.948 38.3854Z" fill="#9ED16F"/>
<path d="M151.13 26.6622C149.357 25.9806 147.313 26.9349 147.313 26.9349L153.802 29.416C153.802 29.416 152.929 27.3438 151.13 26.6622Z" fill="#96A65F"/>
<path d="M153.802 29.4159L147.313 26.9348C147.313 26.9348 148.185 29.0342 149.985 29.7158C151.784 30.3975 153.802 29.4159 153.802 29.4159Z" fill="#9ED16F"/>
<path d="M174.002 119.381H175.011V79.6055C175.011 79.4754 174.959 79.3505 174.867 79.2585C174.775 79.1665 174.65 79.1148 174.52 79.1148C174.454 79.1111 174.387 79.121 174.324 79.144C174.261 79.167 174.204 79.2026 174.156 79.2485C174.107 79.2944 174.068 79.3498 174.042 79.4112C174.016 79.4726 174.002 79.5387 174.002 79.6055V119.381Z" fill="#96A65F"/>
<path d="M162.198 120.799C162.198 120.799 166.86 115.183 170.622 116.791C174.384 118.4 174.984 115.51 176.947 116.464C178.91 117.418 181.363 119.79 181.363 119.79L162.198 120.799Z" fill="#3B77BE"/>
<path d="M171.195 90.8377C169.929 90.8223 168.686 90.5045 167.568 89.9107C167.509 89.8763 167.465 89.8206 167.444 89.7549C167.424 89.6891 167.43 89.6182 167.459 89.5563C167.473 89.5271 167.493 89.5014 167.518 89.4809C167.543 89.4605 167.572 89.4458 167.604 89.438C167.635 89.4301 167.668 89.4294 167.699 89.4357C167.731 89.442 167.761 89.4552 167.787 89.4745C171.822 91.6011 174.739 89.3381 174.875 89.2291C174.898 89.2075 174.924 89.1909 174.954 89.1804C174.983 89.17 175.014 89.1659 175.045 89.1685C175.076 89.1711 175.106 89.1802 175.133 89.1954C175.161 89.2105 175.184 89.2313 175.203 89.2563C175.225 89.281 175.242 89.31 175.253 89.3415C175.263 89.3729 175.267 89.4063 175.265 89.4394C175.262 89.4726 175.253 89.5048 175.238 89.5343C175.222 89.5638 175.201 89.5898 175.175 89.6108C174.008 90.4235 172.617 90.8523 171.195 90.8377Z" fill="#3797DB"/>
<path d="M167.841 89.9657L167.405 89.6931C167.078 89.5022 164.188 87.7572 164.079 86.4213C164.067 86.2637 164.097 86.1059 164.163 85.9627C164.23 85.8195 164.332 85.6958 164.461 85.6033C164.951 85.2216 165.415 85.1126 165.851 85.3034C167.242 85.8487 167.705 89.0932 167.76 89.4477L167.841 89.9657ZM165.442 85.7124C165.19 85.7218 164.949 85.8181 164.76 85.985C164.698 86.033 164.648 86.0951 164.615 86.1663C164.582 86.2374 164.566 86.3155 164.57 86.394C164.624 87.1574 166.205 88.3571 167.187 88.9842C166.969 87.8663 166.478 86.0668 165.66 85.7397L165.442 85.7124Z" fill="#3797DB"/>
<path d="M164.761 92.9371C164.635 92.9348 164.513 92.898 164.407 92.8306C164.301 92.7633 164.216 92.668 164.161 92.5554C164.081 92.4414 164.032 92.309 164.017 92.1706C164.003 92.0323 164.024 91.8926 164.079 91.7647C164.461 90.6741 166.778 89.8834 167.023 89.8016L167.623 89.5835L167.323 90.1561C167.078 90.6196 165.742 92.9098 164.761 92.9371ZM166.533 90.5105C165.769 90.8377 164.733 91.383 164.542 91.9283C164.513 91.9887 164.5 92.0558 164.505 92.1228C164.51 92.1898 164.532 92.2544 164.57 92.31C164.651 92.4463 164.733 92.4463 164.761 92.4463C164.788 92.4463 165.96 91.4375 166.533 90.5105Z" fill="#3797DB"/>
<path d="M168.059 89.5835C168.059 89.6992 168.013 89.8102 167.931 89.892C167.85 89.9738 167.739 90.0198 167.623 90.0198C167.512 90.0128 167.408 89.9638 167.332 89.8827C167.256 89.8017 167.214 89.6947 167.214 89.5835C167.214 89.4751 167.257 89.371 167.334 89.2943C167.411 89.2176 167.515 89.1746 167.623 89.1746C167.734 89.1743 167.841 89.2165 167.922 89.2925C168.003 89.3685 168.052 89.4726 168.059 89.5835Z" fill="#3797DB"/>
<path d="M2.22265 258.555L3.69481 259.809L5.49413 258.991L7.04807 260.518L8.71108 259.046L10.5376 260.682L12.2279 259.509L14.2726 260.818L13.7819 261.581L12.2552 260.627L10.4831 261.854L8.71108 260.273L7.02081 261.772L5.30329 260.082L3.5585 260.9L2.16813 259.727L1.13216 260.491L0.586914 259.755L2.22265 258.555Z" fill="#62BDF3"/>
<path d="M215.196 24.8082L209.198 23.4451L207.617 27.698L201.646 26.553L199.465 30.4515L194.858 30.1516V32.0054L200.992 32.3871L203.064 28.7067L209.253 29.9062L210.834 25.7078L216.259 26.9619L215.196 24.8082Z" fill="#3797DB"/>
<path d="M385.803 121.889L387.984 118.209L386.185 114.365C386.142 114.264 386.128 114.153 386.145 114.044C386.161 113.935 386.207 113.833 386.277 113.749C386.347 113.665 386.439 113.601 386.543 113.566C386.647 113.53 386.759 113.524 386.866 113.547L391.01 114.474L394.118 111.584C394.195 111.505 394.293 111.45 394.4 111.425C394.507 111.401 394.62 111.407 394.723 111.445C394.827 111.482 394.917 111.549 394.984 111.636C395.051 111.724 395.091 111.829 395.099 111.939L395.508 116.192L399.216 118.264C399.312 118.315 399.392 118.392 399.445 118.487C399.499 118.582 399.524 118.69 399.519 118.799C399.513 118.908 399.476 119.012 399.413 119.101C399.35 119.19 399.263 119.259 399.162 119.299L395.263 120.99L394.445 125.161C394.428 125.27 394.379 125.372 394.306 125.454C394.232 125.536 394.136 125.595 394.029 125.624C393.922 125.653 393.81 125.65 393.705 125.616C393.599 125.582 393.506 125.519 393.436 125.434L390.601 122.244L386.376 122.762C386.27 122.769 386.164 122.747 386.069 122.7C385.974 122.653 385.893 122.581 385.835 122.492C385.777 122.404 385.743 122.301 385.738 122.195C385.732 122.089 385.755 121.984 385.803 121.889Z" fill="#4579CB"/>
<path d="M28.6398 223.605C28.9083 222.982 29.3116 222.427 29.8208 221.979C30.33 221.531 30.9323 221.202 31.5842 221.015C33.5743 220.415 35.4282 221.588 36.0007 223.469C36.5732 225.35 35.5372 228.703 31.2843 232.411C25.75 231.647 23.0783 229.684 22.4513 227.531C22.3003 227.084 22.2416 226.611 22.2786 226.14C22.3157 225.67 22.4478 225.212 22.667 224.794C22.8862 224.376 23.1878 224.006 23.5537 223.708C23.9196 223.41 24.3422 223.19 24.7959 223.06C25.4366 222.858 26.1145 222.802 26.7797 222.896C27.4449 222.991 28.0805 223.233 28.6398 223.605Z" fill="#666666"/>
<path d="M12.3098 229.439C14.0802 229.207 15.8368 228.88 17.5719 228.458C18.1172 228.321 19.0442 228.267 19.2896 227.722C19.364 227.597 19.3885 227.449 19.3581 227.308C19.3277 227.166 19.2448 227.041 19.126 226.958C18.6352 226.631 17.8718 226.985 17.3538 227.122C15.7452 227.504 13.9184 227.885 12.0371 228.158C11.9538 228.174 11.8746 228.207 11.8044 228.254C11.7341 228.302 11.6742 228.363 11.6283 228.435C11.5825 228.506 11.5515 228.586 11.5375 228.669C11.5234 228.753 11.5264 228.839 11.5464 228.921C11.5794 229.091 11.6782 229.241 11.8213 229.338C11.9643 229.435 12.1399 229.471 12.3098 229.439Z" fill="#666666"/>
<path d="M40.1719 226.986L42.4621 226.413C43.1983 226.25 44.098 226.168 44.7524 225.732C44.8569 225.67 44.9391 225.576 44.9869 225.464C45.0348 225.353 45.0458 225.229 45.0185 225.11C44.9912 224.992 44.9269 224.885 44.8349 224.806C44.743 224.726 44.6281 224.678 44.507 224.668C43.7436 224.587 42.9256 224.914 42.1895 225.105L39.872 225.677C39.054 225.895 39.3267 227.177 40.1719 226.986Z" fill="#666666"/>
<path d="M21.8789 237.782C22.4515 235.928 23.4875 235.137 24.251 234.292C24.363 234.212 24.4389 234.092 24.4619 233.956C24.485 233.821 24.4532 233.681 24.3736 233.569C24.2941 233.457 24.1733 233.381 24.0378 233.358C23.9023 233.335 23.7632 233.367 23.6511 233.447C22.097 234.074 21.061 235.846 20.6247 237.4C20.3793 238.191 21.6335 238.572 21.8789 237.782Z" fill="#666666"/>
<path d="M31.7206 239.69C31.49 238.912 31.4341 238.093 31.557 237.291C31.6116 236.773 32.2386 235.3 31.2571 235.273C30.2756 235.246 30.2483 236.773 30.1938 237.4C30.11 238.262 30.1933 239.132 30.4392 239.963C30.6845 240.781 31.966 240.508 31.7206 239.69Z" fill="#666666"/>
<path d="M37.0639 233.256L38.5907 233.883C39.0815 234.101 39.5995 234.428 40.1448 234.183C40.2775 234.113 40.3776 233.994 40.4235 233.851C40.4694 233.708 40.4574 233.553 40.3902 233.419C40.1994 232.929 39.4359 232.765 38.9724 232.601L37.4729 231.974C37.3869 231.949 37.2969 231.941 37.2079 231.951C37.1189 231.961 37.0328 231.988 36.9543 232.031C36.8758 232.074 36.8065 232.132 36.7505 232.202C36.6945 232.272 36.6527 232.352 36.6277 232.438C36.5838 232.604 36.6044 232.781 36.6853 232.932C36.7662 233.084 36.9014 233.2 37.0639 233.256Z" fill="#666666"/>
<path d="M22.2063 220.17C19.6434 216.626 19.6707 216.599 19.2617 216.353C19.163 216.301 19.0517 216.277 18.9403 216.285C18.8288 216.293 18.7218 216.331 18.6311 216.396C18.5404 216.462 18.4697 216.551 18.427 216.654C18.3843 216.757 18.3712 216.87 18.3892 216.98C18.4983 217.444 18.4983 217.362 21.2248 221.07C21.2838 221.135 21.355 221.187 21.4343 221.224C21.5135 221.261 21.5993 221.282 21.6866 221.285C21.774 221.289 21.8612 221.276 21.9434 221.246C22.0255 221.216 22.101 221.17 22.1654 221.111C22.2299 221.052 22.282 220.981 22.319 220.902C22.3559 220.822 22.3769 220.737 22.3807 220.649C22.3845 220.562 22.371 220.475 22.3411 220.392C22.3112 220.31 22.2654 220.235 22.2063 220.17Z" fill="#666666"/>
<path d="M29.2397 218.426C29.326 217.711 29.3443 216.99 29.2942 216.272C29.2397 215.59 29.2397 214.554 28.5308 214.254C28.4444 214.23 28.3529 214.229 28.2664 214.254C28.1798 214.278 28.1015 214.325 28.04 214.39C27.5765 214.881 27.9037 215.726 27.9583 216.353C28.0083 217.026 27.99 217.702 27.9037 218.371C27.9281 218.527 28.0058 218.669 28.1235 218.774C28.2413 218.879 28.3918 218.94 28.5493 218.947C28.7069 218.953 28.8619 218.905 28.9877 218.81C29.1136 218.715 29.2027 218.579 29.2397 218.426Z" fill="#666666"/>
<path d="M39.2997 216.68C39.3003 216.53 39.2447 216.385 39.1437 216.274C39.0428 216.163 38.9039 216.094 38.7544 216.08C38.1546 215.999 37.582 216.68 37.2003 217.035C36.7638 217.475 36.3626 217.949 36.0007 218.453C35.9103 218.601 35.8825 218.779 35.9234 218.948C35.9643 219.116 36.0706 219.262 36.2188 219.352C36.367 219.443 36.5451 219.47 36.7138 219.43C36.8826 219.389 37.0281 219.282 37.1185 219.134C38.5908 217.307 39.1907 217.471 39.2997 216.68Z" fill="#666666"/>
<path d="M437.247 170.989C436.62 176.032 441.882 180.04 446.571 179.713C451.723 179.386 456.112 175.133 456.876 170.062C457.694 164.555 454.395 160.138 449.27 159.757C444.144 159.375 441.118 163.792 442.536 168.263C443.572 171.452 446.516 172.652 447.988 171.779C449.46 170.907 449.051 169.353 447.661 169.026C447.39 168.985 447.112 169.022 446.861 169.133C446.61 169.244 446.396 169.425 446.243 169.653C445.017 169.162 443.872 166.954 444.662 164.555C445.644 161.502 449.515 161.338 451.914 162.756C454.967 164.555 455.458 168.481 454.34 171.589C453.223 174.696 449.951 177.423 446.462 177.695C444.545 177.823 442.655 177.191 441.201 175.936C439.747 174.681 438.845 172.904 438.692 170.989C438.61 170.062 437.383 170.062 437.247 170.989Z" fill="#666666"/>
<path d="M31.5569 279.82C31.2297 282.41 33.9287 284.454 36.3278 284.291C38.7269 284.127 41.2077 281.946 41.6167 279.356C42.0256 276.766 40.3354 274.258 37.7182 274.067C35.101 273.877 33.5198 276.139 34.2559 278.429C34.8011 280.065 36.3005 280.665 37.0366 280.229C37.7727 279.793 37.6091 278.975 36.9003 278.811C36.7591 278.788 36.6143 278.807 36.4835 278.865C36.3528 278.923 36.2418 279.018 36.1642 279.138C35.5372 278.893 34.9374 277.748 35.3463 276.521C35.7553 275.294 37.8272 274.885 39.054 275.594C40.2808 276.303 40.8806 278.538 40.3081 280.12C39.9964 280.968 39.453 281.711 38.7397 282.265C38.0264 282.819 37.1718 283.162 36.2733 283.255C35.2927 283.315 34.3273 282.99 33.5835 282.348C32.8397 281.706 32.3765 280.799 32.293 279.82C32.2708 279.739 32.2228 279.668 32.1563 279.617C32.0898 279.567 32.0085 279.539 31.9249 279.539C31.8413 279.539 31.76 279.567 31.6935 279.617C31.627 279.668 31.579 279.739 31.5569 279.82Z" fill="#62BDF3"/>
<path d="M43.934 167.745V162.892L39.8992 160.193C39.797 160.121 39.7165 160.022 39.6665 159.908C39.6166 159.793 39.5991 159.667 39.616 159.543C39.6329 159.42 39.6835 159.303 39.7623 159.206C39.8411 159.109 39.945 159.035 40.0627 158.993L44.6428 157.467L45.9787 152.805C46.0141 152.683 46.0827 152.574 46.1767 152.489C46.2707 152.405 46.3865 152.348 46.511 152.325C46.6356 152.303 46.7639 152.315 46.8818 152.361C46.9996 152.407 47.1023 152.486 47.1782 152.587L50.0407 156.485L54.8934 156.322C55.0155 156.325 55.1344 156.361 55.2377 156.427C55.341 156.492 55.4249 156.583 55.4806 156.692C55.5364 156.801 55.5619 156.922 55.5545 157.044C55.5471 157.166 55.5071 157.284 55.4387 157.385L52.6307 161.338L54.2936 165.891C54.3389 166.009 54.349 166.138 54.3227 166.261C54.2964 166.385 54.2348 166.498 54.1454 166.588C54.056 166.677 53.9426 166.739 53.8189 166.765C53.6952 166.791 53.5666 166.781 53.4485 166.736L48.8412 165.291L45.0245 168.263C44.9251 168.337 44.8071 168.383 44.6834 168.396C44.5597 168.408 44.4349 168.387 44.3226 168.333C44.2103 168.28 44.1147 168.197 44.0462 168.093C43.9777 167.989 43.9389 167.869 43.934 167.745Z" fill="#3797DB"/>
<path d="M395.045 227.586C394.993 226.791 395.178 226 395.576 225.31C395.973 224.62 396.566 224.063 397.279 223.71C397.992 223.356 398.794 223.221 399.584 223.322C400.373 223.423 401.115 223.756 401.717 224.278C402.318 224.799 402.751 225.487 402.962 226.255C403.174 227.022 403.153 227.835 402.903 228.591C402.653 229.347 402.186 230.012 401.559 230.503C400.932 230.993 400.174 231.288 399.38 231.348C398.308 231.416 397.253 231.059 396.441 230.355C395.63 229.651 395.129 228.657 395.045 227.586Z" fill="#62BDF3"/>
<path d="M401.915 239.009C401.67 237.836 401.534 236.582 401.125 235.437C400.716 234.292 399.271 234.783 399.352 235.819C399.434 236.855 399.843 238.409 400.116 239.663C400.225 240.154 400.879 240.399 401.315 240.235C401.752 240.072 402.024 239.527 401.915 239.009Z" fill="#62BDF3"/>
<path d="M408.84 233.992C407.504 233.202 406.332 232.22 405.105 231.293C404.92 231.13 404.679 231.048 404.434 231.063C404.188 231.078 403.959 231.19 403.796 231.375C403.633 231.559 403.551 231.801 403.566 232.046C403.581 232.292 403.694 232.521 403.878 232.683C405.023 233.938 406.523 234.919 407.968 235.764C408.203 235.88 408.475 235.899 408.724 235.817C408.974 235.736 409.181 235.56 409.304 235.328C409.41 235.088 409.421 234.817 409.335 234.569C409.249 234.321 409.072 234.115 408.84 233.992Z" fill="#62BDF3"/>
<path d="M406.304 226.74C406.161 226.849 406.065 227.008 406.034 227.185C406.004 227.362 406.042 227.544 406.141 227.694C406.577 228.512 407.749 228.458 408.567 228.43C409.421 228.398 410.266 228.242 411.076 227.967C412.275 227.558 411.621 225.704 410.421 226.113C408.077 226.904 407.204 226.058 406.304 226.74Z" fill="#62BDF3"/>
<path d="M405.023 218.889C403.851 220.606 402.869 221.179 403.033 222.133C403.043 222.255 403.081 222.374 403.144 222.479C403.206 222.585 403.292 222.675 403.394 222.743C403.496 222.811 403.612 222.856 403.734 222.873C403.855 222.89 403.979 222.879 404.096 222.842C404.723 222.678 405.078 222.024 405.459 221.561L406.495 220.17C406.657 219.97 406.738 219.716 406.723 219.459C406.708 219.202 406.598 218.96 406.414 218.78C406.032 218.48 405.323 218.452 405.023 218.889Z" fill="#62BDF3"/>
<path d="M400.443 218.589C400.061 217.553 399.98 217.171 399.489 216.68C398.998 216.189 398.153 216.517 398.098 217.144C398.044 217.771 398.18 218.125 398.589 219.243C398.681 219.485 398.863 219.682 399.096 219.794C399.33 219.905 399.597 219.923 399.843 219.843C400.081 219.745 400.274 219.563 400.385 219.331C400.496 219.1 400.516 218.835 400.443 218.589Z" fill="#62BDF3"/>
<path d="M395.482 221.124C393.791 219.816 393.437 219.461 392.755 219.516C392.073 219.57 391.937 219.952 392.019 220.388C392.101 220.825 392.646 221.424 394.227 222.569C394.422 222.724 394.669 222.799 394.917 222.778C395.165 222.758 395.396 222.645 395.563 222.46C395.728 222.272 395.811 222.026 395.796 221.776C395.781 221.526 395.668 221.292 395.482 221.124Z" fill="#62BDF3"/>
<path d="M388.666 227.013C387.984 227.394 388.257 228.539 388.966 228.621C389.674 228.703 389.947 228.621 393.301 227.994C393.559 227.973 393.799 227.854 393.971 227.661C394.144 227.468 394.235 227.217 394.228 226.958C394.2 226.467 393.71 225.949 393.192 226.031C389.674 226.685 389.32 226.658 388.666 227.013Z" fill="#62BDF3"/>
<path d="M393.927 232.547C392.101 234.319 391.828 234.019 391.092 235.11C390.765 235.601 391.31 236.391 391.883 236.309C392.455 236.228 392.837 236.037 393.791 235.273C394.362 234.821 394.908 234.339 395.427 233.828C395.809 233.474 395.7 232.765 395.318 232.438C395.22 232.353 395.106 232.289 394.983 232.248C394.859 232.208 394.729 232.192 394.6 232.202C394.471 232.213 394.345 232.248 394.229 232.307C394.114 232.367 394.011 232.448 393.927 232.547Z" fill="#62BDF3"/>
<path d="M77.5757 389.878H81.5287V179.658C81.5288 179.135 81.3228 178.633 80.9555 178.26C80.5881 177.888 80.0889 177.675 79.5658 177.668C79.038 177.668 78.5318 177.878 78.1586 178.251C77.7854 178.624 77.5757 179.13 77.5757 179.658V389.878Z" fill="#3797DB"/>
<path d="M104.32 389.878H108.273V176.087C108.273 175.564 108.067 175.062 107.7 174.689C107.332 174.317 106.833 174.104 106.31 174.097C105.782 174.097 105.276 174.306 104.903 174.68C104.53 175.053 104.32 175.559 104.32 176.087V389.878Z" fill="#3797DB"/>
<path d="M107.619 200.459H80.3836V202.831H107.619V200.459Z" fill="#3797DB"/>
<path d="M107.619 232.247H80.3836V234.619H107.619V232.247Z" fill="#3797DB"/>
<path d="M107.619 264.035H80.3836V266.407H107.619V264.035Z" fill="#3797DB"/>
<path d="M107.619 295.823H80.3836V298.195H107.619V295.823Z" fill="#3797DB"/>
<path d="M87.9899 315.997H70.8146C70.1324 315.997 69.4778 316.266 68.9928 316.746C68.5079 317.225 68.2319 317.877 68.2247 318.559V328.21H71.1145V319.077H87.9899V315.997Z" fill="#13375B"/>
<path d="M91.2885 309.481L85.9451 303.865C85.9451 303.865 80.2473 307 73.5953 309.999C71.7687 306.809 68.7972 296.341 68.6336 295.85C68.47 295.359 72.1232 289.062 71.3053 288.898C70.4874 288.735 69.4242 292.279 68.5518 291.924C67.6794 291.57 65.4712 283.391 64.9532 283.855C63.9717 284.673 66.1254 288.925 65.6075 289.225C65.0895 289.525 63.8082 284.536 62.7994 284.754C61.7907 284.972 64.4897 289.307 64.1898 289.716C63.8899 290.125 61.1092 286.063 60.5367 287.017C60.2368 287.508 63.0993 290.561 62.5268 290.888C61.9543 291.215 59.3371 289.307 59.01 289.934C58.6828 290.561 61.4363 291.215 62.1997 292.769C62.963 294.323 64.3261 294.95 64.7896 297.922C65.2531 300.894 66.5071 316.733 69.7241 317.987C72.941 319.241 91.2885 309.481 91.2885 309.481Z" fill="#EFAC7F"/>
<path d="M140.415 382.544C140.851 379.545 140.824 374.038 140.606 368.204C143.196 368.095 145.404 367.904 148.021 367.74C146.931 375.183 146.195 382.844 146.195 382.844L146.386 384.316L146.467 388.651L131.719 388.76C134.295 387.562 136.791 386.196 139.188 384.67C139.538 384.429 139.829 384.113 140.041 383.745C140.253 383.378 140.381 382.967 140.415 382.544Z" fill="#EFAC7F"/>
<path d="M146.876 389.605L131.31 389.769C130.764 389.741 130.628 389.278 130.819 389.005C131.01 388.733 133 387.997 134.99 387.07C138.48 387.424 145.813 385.052 146.386 384.234C146.686 385.843 147.176 389.523 146.876 389.605Z" fill="#474747"/>
<path d="M166.86 379.463C165.633 376.71 162.716 372.021 159.472 367.195L165.851 362.67L171.93 376.655L172.857 377.828L175.229 381.481L162.743 389.332C164.301 386.959 165.695 384.481 166.914 381.917C167.105 381.59 167.378 380.636 166.86 379.463Z" fill="#EFAC7F"/>
<path d="M175.883 382.38L162.934 390.423C162.443 390.668 162.089 390.368 162.089 390.014C162.089 389.659 163.425 388.024 164.624 386.17C167.787 384.643 172.748 378.7 172.776 377.719C173.893 378.945 176.102 382.162 175.883 382.38Z" fill="#474747"/>
<path d="M160.807 257.928C161.952 252.312 158.327 246.723 153.256 244.624C153.283 241.434 152.247 237.372 150.066 235.191C145.759 230.857 137.525 229.33 134.363 234.864C130.165 237.236 126.866 242.361 128.12 247.023C124.058 251.249 125.585 258.855 131.528 262.426C131.419 267.17 133.927 271.832 138.043 273.849C139.025 274.34 140.579 275.022 140.77 275.24C140.524 274.994 143.823 284.209 154.128 279.983C164.433 275.758 167.65 263.544 160.807 257.928Z" fill="#5E2E0D"/>
<path d="M140.143 378.318C141.424 371.23 136.98 353.673 134.281 345.931C131.582 338.188 129.674 303.892 129.674 303.892L132.864 300.157L145.895 299.367C145.895 299.367 140.361 316.406 140.361 322.267C140.361 328.128 143.06 343.232 146.222 351.083C149.139 358.335 147.94 373.547 147.04 378.536C144.747 378.887 142.409 378.813 140.143 378.318Z" fill="#B2DDFB"/>
<path d="M149.194 300.948C149.793 301.548 153.283 305.692 153.283 308.609C153.283 311.526 146.686 337.589 148.267 339.17C149.848 340.751 155.709 344.704 159.472 350.211C162.607 354.873 169.831 368.313 171.222 371.503C168.495 373.384 166.124 374.256 163.397 375.183C162.961 372.784 141.615 349.257 139.188 344.35C136.762 339.442 135.426 316.951 134.199 313.952C132.973 310.953 129.674 303.374 129.674 303.374L149.194 300.948Z" fill="#C3E6FF"/>
<path d="M130.192 281.728C130.192 281.728 122.149 290.916 113.235 294.378C112.293 294.763 111.418 295.297 110.645 295.959C110.645 296.886 112.335 296.232 112.335 296.232C111.987 296.844 111.889 297.567 112.062 298.249C112.362 299.367 114.298 298.631 115.334 298.631C115.825 298.631 118.305 295.85 121.659 294.214C125.639 292.279 130.301 290.398 130.873 289.825C131.937 288.762 130.492 281.401 130.192 281.728Z" fill="#EFAC7F"/>
<path d="M146.549 255.883C146.549 255.883 138.452 255.065 134.227 257.764C130.001 260.463 127.302 270.06 127.302 274.176C127.302 278.293 130.355 299.803 129.183 303.919C129.183 303.919 142.569 303.32 147.122 303.32C151.675 303.32 152.656 301.575 152.656 301.575C152.656 301.575 143.141 292.197 143.141 288.107C143.141 284.018 146.549 255.883 146.549 255.883Z" fill="#666666"/>
<path d="M36.0006 366.323V380.363H37.5273V367.577H47.5871V371.966C43.6886 372.375 40.6625 375.974 40.6625 380.363C40.6625 384.752 44.0975 388.787 48.3504 388.787C52.6033 388.787 56.0384 384.998 56.0384 380.363C56.0384 375.728 52.985 372.375 49.1138 371.966V367.577H51.1857V365.914H49.1138V360.871H51.1857V359.207H49.1138V353.591H76.6487V351.083H61.4363V336.798C61.4363 332.981 64.9259 328.701 69.6423 328.701H82.7282V326.193H69.6423C64.0535 326.193 59.1463 331.155 59.1463 336.798V351.083H49.1138V343.068H47.5871V359.207H42.489C38.9177 359.207 36.0006 362.397 36.0006 366.323ZM47.5871 365.914H37.5273C37.7181 363.106 39.8719 360.871 42.489 360.871H47.5871V365.914Z" fill="#666666"/>
<path d="M41.9711 368.504L42.271 373.929C42.38 374.638 42.8435 376.328 42.8435 376.955C42.8435 379.3 32.3748 374.965 34.7193 373.929C34.9374 373.82 36.1369 372.512 36.4368 371.775C36.9821 370.467 37.2274 367.877 37.2274 367.877L41.9711 368.504Z" fill="#F48C7F"/>
<path d="M34.7466 373.902C34.7466 373.902 37.2002 374.611 38.4542 374.802C39.7083 374.992 41.3713 373.466 42.271 373.875C43.1706 374.284 43.3069 378.455 43.3069 378.455C43.3069 378.455 30.1665 378.891 26.3498 378.318C24.8231 378.1 29.7303 375.565 34.7466 373.902Z" fill="#466EB6"/>
<path d="M94.2602 356.945H97.15V301.984C97.15 300.13 98.9493 298.631 101.185 298.631H127.139C127.3 298.634 127.46 298.606 127.61 298.548C127.76 298.489 127.898 298.402 128.014 298.291C128.131 298.179 128.224 298.046 128.289 297.898C128.354 297.751 128.389 297.592 128.393 297.431C128.393 297.269 128.36 297.108 128.296 296.959C128.233 296.81 128.139 296.675 128.022 296.563C127.905 296.451 127.766 296.364 127.614 296.307C127.462 296.25 127.301 296.224 127.139 296.231H101.185C97.3681 296.231 94.2602 298.794 94.2602 301.984V356.945Z" fill="#666666"/>
<path d="M80.7381 345.413C90.3344 345.413 98.1314 353.292 98.1314 362.997C98.1314 372.702 90.3344 380.554 80.7381 380.554C71.1417 380.554 63.3175 372.702 63.3175 362.997C63.3175 353.292 71.1145 345.413 80.7381 345.413Z" fill="#666666"/>
<path d="M59.528 362.997C59.528 374.802 69.0153 384.371 80.738 384.371C92.4608 384.371 101.921 374.802 101.921 362.997C101.921 351.193 92.4336 341.596 80.738 341.596C69.0425 341.596 59.528 351.165 59.528 362.997ZM61.5454 362.997C61.5454 352.283 70.133 343.614 80.738 343.614C91.3431 343.614 99.9307 352.283 99.9307 362.997C99.9307 373.711 91.3158 382.353 80.738 382.353C70.1603 382.353 61.5454 373.684 61.5454 362.997Z" fill="#474747"/>
<path d="M94.6691 338.597H103.175V305.593H94.6691V338.597Z" fill="#7772D6"/>
<path d="M66.698 359.208H59.5007C58.5699 359.211 57.6489 359.398 56.7902 359.758C55.9316 360.117 55.1522 360.642 54.4966 361.303C53.8409 361.964 53.3218 362.747 52.9689 363.608C52.616 364.47 52.4362 365.392 52.4398 366.323V380.363H54.1028V366.323C54.0992 365.611 54.236 364.904 54.5053 364.245C54.7746 363.585 55.1712 362.985 55.6725 362.479C56.1737 361.972 56.7698 361.57 57.4266 361.294C58.0835 361.018 58.7883 360.874 59.5007 360.871H66.698V359.208Z" fill="#7772D6"/>
<path d="M41.3168 344.568H63.7264V340.724H41.3168V344.568Z" fill="#474747"/>
<path d="M66.5617 365.914H53.2577V367.577H66.5617V365.914Z" fill="#7772D6"/>
<path d="M96.5774 351.083H65.8528V353.581H96.5774V351.083Z" fill="#7772D6"/>
<path d="M63.1539 344.595H103.148V340.694H63.1539V344.595Z" fill="#474747"/>
<path d="M101.921 359.889H104.402V304.928C104.416 304.022 104.788 303.158 105.437 302.525C106.085 301.892 106.958 301.54 107.864 301.548H131.201V299.176H107.864C104.593 299.176 101.921 301.738 101.921 304.928V359.889Z" fill="#7772D6"/>
<path d="M56.5564 380.363C56.5564 384.998 60.7275 388.787 65.8528 388.787C70.9781 388.787 75.1493 384.998 75.1493 380.363C75.1493 375.728 70.9781 371.939 65.8528 371.939C60.7275 371.939 56.5564 375.701 56.5564 380.363Z" fill="#474747"/>
<path d="M60.2095 380.363C60.2095 383.171 62.7177 385.488 65.8528 385.488C68.988 385.488 71.4961 383.171 71.4961 380.363C71.4961 377.555 68.988 375.21 65.8528 375.21C62.7177 375.21 60.2095 377.528 60.2095 380.363Z" fill="#7772D6"/>
<path d="M43.2251 326.193C45.8968 323.521 83.3007 324.803 83.3007 324.803C83.3007 324.803 51.6219 332.545 49.7681 333.554C47.9142 334.563 41.0169 368.613 41.0169 369.049C39.1085 368.586 37.9362 368.94 36.0006 368.531C36.3278 362.615 38.8904 330.528 43.2251 326.193Z" fill="#3B77BE"/>
<path d="M46.8517 368.667C46.8517 368.667 47.1789 374.093 47.1789 374.12C47.2879 374.802 47.7242 376.492 47.7242 377.12C47.7242 379.464 37.2817 375.129 39.6265 374.093C39.8446 373.984 41.2624 372.757 41.3442 371.939C41.426 371.121 41.3987 368.749 41.3987 368.749L46.8517 368.667Z" fill="#F7A491"/>
<path d="M39.6538 374.065C39.6538 374.065 42.1074 374.774 43.3615 374.965C44.6156 375.156 46.2786 373.629 47.151 374.038C48.0233 374.447 48.1869 378.618 48.1869 378.618C48.1869 378.618 35.0738 379.054 31.257 378.482C29.7303 378.264 34.6376 375.728 39.6538 374.065Z" fill="#466EB6"/>
<path d="M89.1349 332.49C89.1349 332.49 88.835 340.996 85.9997 341.078C83.1644 341.16 65.035 341.596 54.8117 340.669L47.9416 371.067L39.8719 370.276C39.8719 370.276 42.2983 349.993 43.1707 342.278C44.043 334.562 46.4694 328.319 50.7496 328.156C55.0297 327.992 83.2735 323.63 83.2735 323.63L89.1349 332.49Z" fill="#3797DB"/>
<path d="M96.7411 292.851C96.7411 292.851 101.321 294.023 100.721 302.965C100.122 311.908 95.1326 338.952 85.9997 341.078C76.8669 343.205 70.8964 323.957 70.8964 323.957C70.8964 323.957 76.6488 322.049 79.0751 313.107C80.7381 306.891 85.1819 292.906 86.2996 292.224C89.0804 290.561 96.7411 292.851 96.7411 292.851Z" fill="#C3E6FF"/>
<path d="M77.5757 353.019H80.0565V336.798C80.0565 332.981 83.8733 328.701 88.9713 328.701H103.175V326.193H88.9713C82.8918 326.193 77.5757 331.155 77.5757 336.798V353.019Z" fill="#7772D6"/>
<path d="M103.148 385.461C114.184 385.461 123.131 376.429 123.131 365.287C123.131 354.145 114.184 345.113 103.148 345.113C92.1112 345.113 83.1644 354.145 83.1644 365.287C83.1644 376.429 92.1112 385.461 103.148 385.461Z" fill="#7772D6"/>
<path d="M78.8297 365.314C78.8297 378.864 89.7073 389.877 103.175 389.877C116.642 389.877 127.52 378.864 127.52 365.314C127.52 351.765 116.615 340.751 103.175 340.751C89.7346 340.751 78.8297 351.738 78.8297 365.314ZM81.1197 365.314C81.1197 353.019 90.9887 343.068 103.175 343.068C115.361 343.068 125.203 353.019 125.203 365.314C125.203 377.609 115.334 387.533 103.175 387.533C91.0159 387.533 81.1197 377.582 81.1197 365.314Z" fill="#7772D6"/>
<path d="M86.6812 365.314C86.6812 374.502 94.0693 381.944 103.175 381.944C112.281 381.944 119.669 374.502 119.669 365.314C119.669 356.127 112.281 348.657 103.175 348.657C94.0693 348.657 86.6812 356.127 86.6812 365.314Z" fill="#666666"/>
<path d="M99.4672 365.315C99.478 366.046 99.7046 366.757 100.118 367.36C100.532 367.962 101.115 368.429 101.794 368.701C102.472 368.974 103.216 369.039 103.931 368.89C104.647 368.741 105.303 368.384 105.816 367.863C106.329 367.342 106.677 366.681 106.816 365.964C106.954 365.246 106.878 364.503 106.595 363.829C106.313 363.154 105.838 362.579 105.23 362.173C104.621 361.768 103.906 361.552 103.175 361.552C102.684 361.552 102.197 361.65 101.744 361.839C101.29 362.029 100.879 362.307 100.534 362.657C100.189 363.007 99.9168 363.423 99.7337 363.879C99.5506 364.335 99.46 364.823 99.4672 365.315Z" fill="#7772D6"/>
<path d="M29.5667 382.926H54.7571V378.564H29.5667V382.926Z" fill="#474747"/>
<path d="M40.4989 382.926H54.7844V378.564H40.4989V382.926Z" fill="#7772D6"/>
<path d="M66.6707 344.54H65.0077V382.917H66.6707V344.54Z" fill="#7772D6"/>
<path d="M64.8714 380.854C64.9111 381.096 65.0357 381.317 65.223 381.476C65.4103 381.635 65.648 381.723 65.8938 381.723C66.1395 381.723 66.3773 381.635 66.5646 381.476C66.7518 381.317 66.8765 381.096 66.9162 380.854C66.9405 380.706 66.9323 380.554 66.8921 380.409C66.8519 380.264 66.7807 380.13 66.6834 380.016C66.5861 379.901 66.4651 379.809 66.3288 379.746C66.1925 379.683 66.044 379.65 65.8938 379.65C65.7436 379.65 65.5951 379.683 65.4588 379.746C65.3224 379.809 65.2014 379.901 65.1042 380.016C65.0069 380.13 64.9357 380.264 64.8955 380.409C64.8553 380.554 64.8471 380.706 64.8714 380.854Z" fill="#45258F"/>
<path d="M93.9875 268.888C93.9875 268.888 97.2045 266.734 98.5403 270.523C98.9767 270.507 99.4136 270.516 99.8489 270.551C100.503 270.796 101.13 271.478 101.73 271.859C103.829 273.195 104.783 275.785 104.892 278.184C105.029 281.101 103.829 283.228 101.921 285.327C101.385 285.962 100.75 286.505 100.04 286.935C99.1401 287.399 98.4313 287.017 97.6134 287.235C96.7955 287.453 96.6592 288.135 95.8141 287.889C94.969 287.644 93.4423 286.036 91.9974 286.254C90.5525 286.472 87.2265 285.19 87.2265 285.163C82.9463 283.5 85.8361 275.24 86.654 272.295C87.4718 269.351 91.3431 267.906 93.9875 268.888Z" fill="#282828"/>
<path d="M90.1163 287.698L89.0258 290.725L88.426 292.415C88.426 292.415 88.3715 295.441 89.0803 296.232C90.3071 297.567 95.2961 292.578 95.2961 292.578L96.8773 283.037L90.1163 287.698Z" fill="#EFAC7F"/>
<path d="M96.36 286.118C94.4788 289.089 91.1797 290.425 88.9985 290.753L90.1164 287.699L96.8781 283.037L96.36 286.118Z" fill="#D19369"/>
<path d="M95.596 273.25C94.9956 272.893 94.3249 272.671 93.6303 272.598C92.9356 272.526 92.2335 272.605 91.5725 272.831C90.9115 273.056 90.3074 273.423 89.8018 273.904C89.2962 274.386 88.9012 274.972 88.6441 275.621C88.108 277.067 87.6529 278.542 87.281 280.038C86.2995 284.1 87.5536 288.544 89.4074 288.953C91.2613 289.362 96.9591 287.835 98.4313 282.083C99.3309 278.538 98.2677 274.885 95.596 273.25Z" fill="#EFAC7F"/>
<path d="M96.9591 282.246C96.7682 283.146 97.2045 284.018 97.9406 284.182C98.6768 284.346 99.4129 283.746 99.631 282.846C99.8492 281.946 99.3857 281.074 98.6495 280.91C97.9134 280.747 97.15 281.346 96.9591 282.246Z" fill="#EFAC7F"/>
<path d="M91.2344 283.936C91.2344 283.936 93.661 284.727 93.8791 285.627C94.0972 286.526 93.7701 287.835 92.5704 288.817C91.3707 289.798 88.8079 289.198 88.1262 288.653C87.4446 288.108 86.8993 285.79 87.5809 284.481C88.2626 283.173 91.2344 283.936 91.2344 283.936Z" fill="#282828"/>
<path d="M92.0249 285.817C92.0249 285.817 92.0249 286.799 91.6705 286.99C91.3283 287.188 90.9467 287.309 90.5526 287.344C90.2682 287.377 89.9803 287.331 89.7205 287.211C89.4607 287.091 89.2391 286.901 89.0803 286.663C89.0541 286.651 89.0322 286.632 89.0175 286.608C89.0028 286.583 88.9962 286.555 88.9985 286.526C88.8129 286.085 88.7112 285.614 88.6986 285.136C89.2241 285.005 89.7672 284.959 90.3072 284.999C90.9071 285.109 92.0249 285.817 92.0249 285.817Z" fill="#EFAC7F"/>
<path d="M118.442 297.486C119.423 296.504 123.894 295.005 127.302 292.551C128.801 291.461 131.691 290.043 134.526 288.489C136.549 289.562 138.345 291.015 139.815 292.769C134.717 295.114 129.21 297.459 128.365 298.304C126.784 299.885 124.031 303.456 123.376 303.456C122.722 303.456 117.842 302.011 117.106 301.275C116.37 300.539 117.488 298.44 118.442 297.486Z" fill="#EFAC7F"/>
<path d="M134.527 288.489C138.071 286.526 141.506 284.345 141.86 282.437C142.487 278.974 139.57 264.035 141.206 261.172C142.842 258.31 146.549 255.883 146.549 255.883C147.122 255.883 149.248 257.192 149.821 259.755C150.393 262.317 149.357 285.517 148.785 287.644C148.512 288.625 144.477 292.578 139.979 294.65C138.589 292.933 136.571 289.607 134.527 288.489Z" fill="#7772D6"/>
<path d="M97.9405 319.759L83.7914 323.467C83.7914 323.467 79.6203 326.466 77.7664 327.066C75.9126 327.665 73.5953 329.71 74.0588 330.337C74.5222 330.964 76.8395 328.838 77.2212 328.892C77.6029 328.947 75.8581 331.509 75.5582 333.172C75.2583 334.835 74.7131 336.471 75.6673 336.335C76.6214 336.198 77.303 332.436 77.303 332.436C77.303 332.436 78.7751 329.601 79.0205 329.928C79.2659 330.255 78.0391 332.218 78.0391 332.218C78.0391 332.218 77.7392 334.345 77.6029 335.081C77.4666 335.817 78.0391 337.289 78.4753 336.689C78.9115 336.089 78.6116 334.944 78.8842 334.154C79.3018 333.138 79.842 332.176 80.4927 331.291C80.4927 331.291 79.4294 336.089 80.111 336.198C80.7926 336.307 81.4741 332.354 81.4741 332.354C81.4741 332.354 83.0826 329.028 83.8187 328.729C84.5547 328.429 86.4904 327.175 87.9898 326.657C89.4892 326.139 95.7868 327.856 98.5676 327.883C101.348 327.911 105.901 326.193 106.283 324.012C106.392 323.331 105.983 322.595 105.329 321.886C104.411 320.887 103.236 320.161 101.933 319.786C100.63 319.411 99.2486 319.402 97.9405 319.759Z" fill="#EFAC7F"/>
<path d="M96.741 292.851C96.741 292.851 101.048 292.088 104.92 299.067C108.791 306.046 106.283 324.012 106.283 324.012L97.9405 319.759L96.741 292.851Z" fill="#B2DDFB"/>
<path d="M115.825 298.876C115.334 298.876 112.689 299.04 112.281 298.631C111.872 298.222 113.644 297.159 113.807 297.322C113.971 297.486 114.762 297.104 115.007 297.349C115.252 297.595 116.016 297.322 116.207 297.54C116.398 297.758 116.316 298.876 115.825 298.876Z" fill="#EFAC7F"/>
<path d="M142.351 248.659C142.351 248.659 141.451 253.621 141.615 255.584C141.778 257.547 140.933 263.844 137.035 263.844C133.136 263.844 135.781 257.328 136.162 255.393C136.544 253.457 137.116 246.096 137.116 246.096L142.351 248.659Z" fill="#EFAC7F"/>
<path d="M136.871 248.905C136.919 247.925 137.038 246.95 137.226 245.987L142.351 248.659C142.351 248.659 142.16 249.695 141.97 250.977C141.01 251.2 140.004 251.121 139.091 250.75C138.179 250.379 137.403 249.734 136.871 248.905Z" fill="#D19369"/>
<path d="M142.46 234.265C143.922 234.89 145.119 236.009 145.84 237.427C147.04 239.826 147.422 246.505 142.623 249.068C137.825 251.631 134.636 246.914 134.935 242.661C135.235 238.409 136.571 232.874 142.46 234.265Z" fill="#EFAC7F"/>
<path d="M133.491 241.489C133.382 242.58 133.763 243.507 134.363 243.588C134.963 243.67 135.563 242.798 135.699 241.68C135.835 240.562 135.426 239.662 134.827 239.608C134.227 239.553 133.627 240.371 133.491 241.489Z" fill="#EFAC7F"/>
<path d="M145.404 243.343C144.995 244.406 145.213 245.524 145.895 245.824C146.577 246.124 147.476 245.524 147.885 244.461C148.294 243.397 148.103 242.279 147.422 241.979C146.74 241.68 145.84 242.279 145.404 243.343Z" fill="#EFAC7F"/>
<path d="M381.932 52.5613L391.337 65.4563L397.553 58.6408L381.932 52.5613Z" fill="#4579CB"/>
<path d="M398.398 55.0967L397.553 58.6408L381.932 52.5613L398.398 55.0967Z" fill="#6FA7FF"/>
<path d="M397.553 60.0039L381.932 52.5613L396.435 65.4563L397.553 60.0039Z" fill="#6FA7FF"/>
<path d="M407.04 75.4617C406.931 75.4617 404.178 75.1618 400.715 73.0081C397.253 70.8544 395.917 67.0377 395.917 66.4379C395.917 66.3268 395.959 66.2198 396.035 66.1387C396.111 66.0577 396.215 66.0087 396.326 66.0017C396.437 66.0015 396.544 66.0437 396.625 66.1197C396.706 66.1957 396.755 66.2997 396.762 66.4106C396.79 66.8196 397.907 70.2819 401.152 72.2993C404.396 74.3167 407.095 74.6166 407.122 74.6166C407.233 74.6303 407.334 74.686 407.405 74.7722C407.476 74.8584 407.512 74.9686 407.504 75.08C407.501 75.1363 407.486 75.1914 407.46 75.2416C407.435 75.2919 407.399 75.3364 407.355 75.3722C407.312 75.408 407.261 75.4345 407.207 75.4499C407.153 75.4653 407.096 75.4693 407.04 75.4617Z" fill="#62BDF3"/>
<path d="M424.107 79.2783C419.222 78.2898 414.54 76.4833 410.257 73.9349C406.713 71.8357 403.851 68.5915 400.225 66.8195C400.162 66.8031 400.104 66.7729 400.054 66.7311C400.004 66.6892 399.964 66.6368 399.938 66.5777C399.911 66.5185 399.897 66.4541 399.899 66.3892C399.9 66.3243 399.916 66.2604 399.945 66.2023C399.974 66.1442 400.015 66.0933 400.067 66.0534C400.118 66.0134 400.177 65.9855 400.241 65.9714C400.304 65.9574 400.37 65.9578 400.433 65.9724C400.496 65.9871 400.556 66.0157 400.606 66.0561C404.341 67.91 407.204 71.1269 410.694 73.2261C414.89 75.7263 419.481 77.4962 424.27 78.4605C426.312 78.8241 428.388 78.9521 430.459 78.8422C430.57 78.8419 430.677 78.8841 430.758 78.9601C430.839 79.0361 430.888 79.1402 430.895 79.2511C430.889 79.3604 430.845 79.4641 430.77 79.544C430.695 79.6238 430.595 79.6746 430.486 79.6873C428.351 79.7976 426.21 79.6604 424.107 79.2783Z" fill="#62BDF3"/>
<path d="M218.085 227.013C218.085 227.013 207.753 208.583 205.218 204.658C202.682 200.732 196.167 185.165 195.921 184.565C195.676 183.966 200.447 176.577 199.384 176.332C198.32 176.087 197.148 180.203 196.03 179.713C194.912 179.222 191.586 169.244 190.959 169.762C189.76 170.662 192.732 175.923 192.077 176.25C191.423 176.577 189.515 170.471 188.233 170.662C186.952 170.852 190.632 176.25 190.278 176.741C189.923 177.232 186.134 172.106 185.452 173.197C185.071 173.797 188.942 177.668 188.206 178.022C187.47 178.377 184.008 175.896 183.653 176.605C183.299 177.314 186.843 178.322 187.879 180.258C188.915 182.194 190.769 183.039 191.505 186.637C192.241 190.236 193.386 203.24 197.203 209.728C201.019 216.217 209.498 230.584 209.498 230.584L218.085 227.013Z" fill="#EFAC7F"/>
<path d="M263.859 315.997C263.859 315.997 263.014 314.961 262.768 314.579C262.523 314.198 261.678 312.78 261.678 312.78C261.678 312.78 259.17 307.873 259.551 307.736C259.933 307.6 260.833 308.173 261.078 308.418L261.95 309.181C262.018 309.244 262.097 309.292 262.183 309.323C262.269 309.355 262.361 309.368 262.453 309.363C262.544 309.358 262.634 309.334 262.716 309.294C262.799 309.253 262.872 309.196 262.932 309.127C263.259 308.827 262.441 307.627 262.06 307.246C260.914 306.128 257.234 303.729 256.852 303.456C256.471 303.184 253.608 293.833 252.381 290.725C250.555 285.572 248.919 280.174 248.728 279.629L247.583 256.265L238.859 253.348C238.859 253.348 239.759 279.302 239.95 280.61C240.059 281.21 245.239 292.824 245.239 292.824C248.128 298.385 250.718 303.265 251.182 304.22C251.182 304.22 251.809 307.437 252.109 309.536C252.409 311.635 253.472 313.407 253.635 313.979C254.056 315.46 254.719 316.86 255.598 318.123C256.825 319.923 256.471 317.633 256.471 317.633C256.471 317.633 254.753 313.898 255.08 313.816C255.408 313.734 256.144 315.833 257.479 317.823L258.515 319.323C259.361 320.522 260.342 320.332 259.66 318.914C259.361 318.28 259.015 317.669 258.624 317.087C258.188 316.488 257.997 315.833 257.752 315.288C257.207 314.198 256.798 313.434 256.852 313.434C256.907 313.434 256.961 313.134 257.343 313.68C257.725 314.225 258.515 315.888 259.251 316.76C259.988 317.633 260.533 318.369 260.533 318.369C260.533 318.369 262.06 320.032 262.196 319.95C262.796 319.595 262.032 318.096 261.378 317.496C260.724 316.897 260.233 315.752 260.233 315.752C260.233 315.752 258.897 313.025 259.279 312.834C259.66 312.644 264.022 318.56 264.622 318.151C265.222 317.742 263.859 315.997 263.859 315.997Z" fill="#EFAC7F"/>
<path d="M248.238 224.914C248.456 219.816 247.692 214.772 245.43 210.028C243.467 205.939 238.587 203.622 234.17 203.622C220.103 203.595 218.304 222.187 209.362 229.357C206.635 231.566 203.555 233.338 200.965 235.71C191.423 244.433 195.73 260.573 204.509 268.206C210.588 273.522 220.157 276.548 227.682 272.377C231.58 270.224 234.579 266.625 236.678 262.672C239.704 257.083 241.64 250.622 243.767 244.652C245.893 238.681 247.965 231.702 248.238 224.914Z" fill="#282828"/>
<path d="M204.263 389.114C204.263 389.114 203.282 395.957 201.564 398.192C200.992 398.929 199.956 399.855 199.274 401.219C198.211 403.291 198.784 406.398 199.574 408.116C199.983 409.016 199.547 409.016 200.474 409.288C203.2 410.133 206.09 408.716 207.262 406.099C208.077 404.257 208.53 402.277 208.598 400.264C208.898 394.021 210.834 390.859 210.834 390.859L204.263 389.114Z" fill="#EFAC7F"/>
<path d="M234.088 392.25C234.088 392.25 234.715 399.992 234.225 402.5C233.952 403.836 232.453 406.617 233.134 407.871C233.816 409.125 234.606 409.452 234.606 409.452L252.218 409.752C253.172 409.752 252.545 409.152 251.754 408.58C250.5 407.653 249.464 407.026 245.43 405.09C245.157 404.954 244.203 404.354 243.848 404.136C242.918 403.515 242.074 402.772 241.34 401.928C240.086 400.51 239.977 393.694 239.977 393.694L234.088 392.25Z" fill="#EFAC7F"/>
<path d="M247.856 289.416C247.856 289.416 250.064 301.984 248.619 310.217C247.174 318.45 240.168 394.785 240.168 394.785L232.398 395.221C232.398 395.221 230.79 363.324 231.062 358.908C231.335 354.491 233.68 347.049 233.68 347.049L232.889 321.313L242.703 287.48L247.856 289.416Z" fill="#474747"/>
<path d="M225.037 286.772C225.037 286.772 218.931 295.959 217.458 303.565C215.986 311.172 218.549 334.535 215.741 344.486C214.214 349.884 208.462 358.199 207.589 365.178C206.717 372.157 203.309 390.396 203.309 390.396L211.052 391.922L229.099 346.34L243.249 305.147L246.874 283.937L225.037 286.772Z" fill="#666666"/>
<path d="M229.999 234.537C229.999 234.537 221.902 234.019 218.685 237.509C215.468 240.998 225.801 268.533 226.373 272.977C226.946 277.421 223.402 289.198 223.402 289.198C223.402 289.198 242.431 293.015 247.856 289.416C247.856 289.416 248.428 257.547 247.856 254.384C247.283 251.222 242.431 238.327 241.258 237.073C240.086 235.818 229.999 234.537 229.999 234.537Z" fill="#C3E6FF"/>
<path d="M232.671 223.741C232.671 223.741 232.644 223.959 232.562 224.368C232.207 226.304 230.817 232.765 229.863 234.537C228.909 236.309 233.761 243.506 238.587 242.661C240.032 242.416 237.387 236.391 237.496 235.764C237.742 234.537 238.069 232.874 238.423 231.156C238.614 230.202 238.805 229.221 238.996 228.294C239.486 225.677 239.923 223.55 239.923 223.55L232.671 223.741Z" fill="#EFAC7F"/>
<path d="M232.562 224.368C232.644 223.959 232.671 223.741 232.671 223.741L239.923 223.55C239.923 223.55 239.487 225.677 238.996 228.294L238.424 231.13C237.125 230.911 235.921 230.314 234.961 229.412C233.765 228.362 232.863 227.018 232.344 225.513L232.562 224.368Z" fill="#D19369"/>
<path d="M237.551 207.302C237.551 207.302 234.143 206.92 231.989 209.674C229.836 212.427 227.546 220.988 232.862 225.622C238.178 230.257 243.439 224.995 244.203 219.434C244.966 213.872 245.293 207.111 237.551 207.302Z" fill="#EFAC7F"/>
<path d="M245.784 219.352C245.157 220.579 244.094 221.261 243.412 220.879C242.731 220.497 242.703 219.161 243.33 217.934C243.957 216.707 245.021 216.026 245.702 216.407C246.384 216.789 246.411 218.125 245.784 219.352Z" fill="#EFAC7F"/>
<path d="M237.932 206.402C237.932 206.402 233.38 214.526 230.108 214.881C226.837 215.235 226.428 219.57 226.428 219.57C226.428 219.57 227.6 209.647 230.817 207.711C234.034 205.775 237.932 206.402 237.932 206.402Z" fill="#282828"/>
<path d="M207.78 404.736C203.555 405.499 200.747 403.045 199.274 401.192C198.211 403.291 197.693 406.399 198.484 408.116C199.274 409.834 201.21 409.588 202.819 409.643C204.427 409.697 205.817 408.77 206.663 407.298C207.123 406.485 207.497 405.626 207.78 404.736Z" fill="#474747"/>
<path d="M243.848 404.136C239.186 405.335 235.751 404.517 233.843 403.754C233.325 405.144 232.671 406.916 233.025 407.925C233.38 408.934 234.061 409.452 234.606 409.452C238.859 409.588 250.173 409.724 253.417 409.779C253.521 409.785 253.624 409.76 253.714 409.707C253.803 409.654 253.874 409.576 253.919 409.482C253.963 409.388 253.977 409.282 253.961 409.18C253.945 409.077 253.898 408.982 253.826 408.906C253.036 407.952 244.203 404.354 243.848 404.136Z" fill="#474747"/>
<path d="M230.981 216.926C231.226 218.371 230.708 219.707 229.781 219.898C228.854 220.089 227.9 219.053 227.627 217.608C227.355 216.163 227.9 214.854 228.827 214.663C229.754 214.472 230.708 215.481 230.981 216.926Z" fill="#EFAC7F"/>
<path d="M215.223 221.042C215.223 221.042 226.646 233.31 228.336 238.245C230.026 243.179 226.673 250.267 222.038 250.567C217.404 250.867 207.099 228.812 207.099 228.812L215.223 221.042Z" fill="#C3E6FF"/>
<path d="M228.2 66.0016L215.277 68.8097C214.542 68.9699 213.781 68.9835 213.04 68.8496C212.299 68.7156 211.592 68.4368 210.959 68.0291C210.326 67.6214 209.779 67.0928 209.351 66.4735C208.922 65.8543 208.62 65.1566 208.462 64.4204L207.262 58.9134C207.098 58.1774 207.082 57.4162 207.214 56.6738C207.347 55.9315 207.625 55.2228 208.033 54.5888C208.442 53.9548 208.972 53.4082 209.593 52.9806C210.214 52.553 210.914 52.253 211.652 52.0979L224.547 49.2626C226.032 48.9464 227.582 49.2303 228.859 50.0526C230.136 50.8749 231.036 52.1687 231.362 53.6518L232.562 59.1861C232.886 60.6682 232.609 62.2186 231.791 63.4965C230.973 64.7745 229.682 65.6755 228.2 66.0016Z" fill="#666666"/>
<path d="M208.571 61.4216L203.037 70.3645L211.516 66.711L208.571 61.4216Z" fill="#7772D6"/>
<path d="M214.814 58.9406L216.968 58.4227C216.968 58.4227 219.23 55.7509 219.149 55.0149C219.067 54.2788 218.304 52.8611 218.685 52.5885C218.829 52.4667 218.996 52.3748 219.176 52.3183C219.357 52.2619 219.546 52.2419 219.734 52.2597C219.922 52.2775 220.104 52.3326 220.271 52.4218C220.437 52.5111 220.584 52.6326 220.703 52.7794C221.248 53.3519 221.493 55.969 221.766 56.0781C222.039 56.1871 223.211 55.8873 224.11 55.6692C224.4 55.5978 224.704 55.6084 224.988 55.6999C225.272 55.7914 225.525 55.9601 225.719 56.1872C225.853 56.3399 225.931 56.5336 225.941 56.7365C225.951 56.9395 225.892 57.1398 225.773 57.3049L225.365 57.8229L225.855 58.2318C226.032 58.3803 226.143 58.5927 226.163 58.8227C226.184 59.0526 226.112 59.2813 225.964 59.4586L225.664 59.8403L225.992 60.0857C226.087 60.1595 226.167 60.2525 226.224 60.3587C226.282 60.4648 226.318 60.5819 226.328 60.7023C226.338 60.8228 226.323 60.9441 226.284 61.0585C226.245 61.173 226.182 61.278 226.101 61.367L225.828 61.6941L225.91 61.7759C226.052 61.9398 226.127 62.1506 226.122 62.3673C226.117 62.584 226.032 62.7911 225.882 62.9482L225.583 63.2481L219.858 64.6385C219.323 64.7743 218.767 64.8021 218.222 64.7202L216.123 64.8566C216.011 64.8725 215.897 64.8444 215.806 64.7783C215.714 64.7122 215.652 64.6132 215.632 64.5021L214.487 59.4859C214.462 59.3704 214.481 59.2497 214.542 59.1483C214.603 59.047 214.7 58.9727 214.814 58.9406Z" fill="white"/>
<path d="M268.603 0.572121C280.162 2.72584 288.449 10.2502 287.141 17.3384C286.459 20.8825 283.515 23.6633 279.317 25.299L282.043 36.6401L273.701 26.6621C270.403 27.0555 267.065 26.9359 263.804 26.3077C252.245 24.154 243.93 16.6569 245.266 9.54142C246.602 2.42596 257.043 -1.55434 268.603 0.572121Z" fill="#62BDF3"/>
<path d="M273.891 16.1934C273.258 17.5155 272.246 18.6201 270.985 19.3675C269.723 20.1149 268.268 20.4715 266.804 20.3924C265.34 20.3132 263.933 19.8018 262.759 18.9228C261.586 18.0438 260.699 16.8366 260.211 15.4538C259.724 14.071 259.657 12.5748 260.02 11.1541C260.382 9.7334 261.158 8.4521 262.248 7.47212C263.339 6.49214 264.696 5.85747 266.147 5.64834C267.598 5.4392 269.079 5.66498 270.402 6.29715C271.281 6.71734 272.069 7.30674 272.72 8.03166C273.372 8.75658 273.874 9.60279 274.198 10.5219C274.522 11.441 274.662 12.415 274.609 13.3881C274.557 14.3613 274.313 15.3145 273.891 16.1934Z" fill="#3797DB"/>
<path d="M263.123 12.3223C262.667 13.2695 262.607 14.359 262.954 15.3509C263.302 16.3429 264.03 17.1561 264.977 17.6116C265.924 18.0672 267.014 18.1278 268.006 17.7801C268.997 17.4324 269.811 16.7049 270.266 15.7576L263.123 12.3223Z" fill="#EFEFEF"/>
<path d="M437.574 213.981L435.012 214.254L434.139 210.165L430.377 210.11L429.205 207.166L427.732 207.738L429.259 211.664L432.858 211.746L433.757 215.971L437.601 215.59L437.574 213.981Z" fill="#666666"/>
<path d="M422.852 149.397L416.855 146.78L415.492 150.896L413.529 150.242L415.601 143.944L421.544 146.534L423.071 141.654L428.523 143.944L430.786 139.146L432.667 140.019L429.586 146.643L424.379 144.462L422.852 149.397Z" fill="#C3E6FF"/>
</g>
</svg>
